<svg xmlns="http://www.w3.org/2000/svg" xmlns:xlink="http://www.w3.org/1999/xlink" width="524.67" height="520.188" viewBox="0 0 524.67 520.188"><path fill="#3f3d56" d="M524.67004,518.99758c0,.66003-.53003,1.19-1.19006,1.19H1.19c-.65997,0-1.19-.52997-1.19-1.19s.53003-1.19,1.19-1.19H523.47998c.66003,0,1.19006,.53003,1.19006,1.19Z"/><polygon fill="#ffb6b6" points="362.542 461.059 368.542 486.059 350.542 491.059 346.542 464.059 362.542 461.059"/><polygon fill="#ffb6b6" points="391.542 380.059 372.542 396.059 360.542 415.059 377.542 426.059 406.542 393.059 391.542 380.059"/><path fill="#2f2e41" d="M385.54192,215.05879l16,54s71,62,64,75c-7,13-54,49-54,49,0,0,3.48819,11.51181-6.75591,6.75591-10.24409-4.75591-21.24409-17.75591-21.24409-17.75591,0,0,0-10,5-8,5,2,28-25,28-25l-50-46v153.81496s12,10.49213,0,11.33858c-12,.84646-23,2.84646-23,2.84646,0,0-14-5-9-10l-15-82-11-100,8-52,69-12Z"/><path fill="#2f2e41" d="M353.54192,483.05879s1-4,5-4h12.21654s3.78346,17,2.78346,17,16,22-2,23c-18,1-23-1-23-1l-2-7.8937s-3-5.1063-2-9.1063,9-18,9-18Z"/><path fill="#2f2e41" d="M378.54192,418.05879s11.48556-.1811,8.74278,2.90945c-2.74278,3.09055-7.74278,8.09055-7.74278,8.09055,0,0-11.8942,24-17.4471,19.5-5.5529-4.5-14.5529-54.5-11.5529-60.5s7-6,7-6l18.44907,11.09552s-11.44907,27.90448,2.55093,24.90448Z"/><polygon fill="#ffb6b6" points="350.542 130.059 354.542 105.059 327.542 94.059 323.542 132.059 350.542 130.059"/><polygon points="350.542 130.059 354.542 105.059 327.542 94.059 323.542 132.059 350.542 130.059" opacity=".1"/><path fill="#e6e6e6" d="M322.04192,126.55879l32-8,34,11s15,42,10,57c-5,15-5,44.29921-5,44.29921,0,0-.5-12.79921-29.5-3.79921-29,9-50,8-50,8l-1-36-12.56231-31.97679c-5.36947-13.66775,.41799-29.18571,13.42611-35.99949l8.6362-4.52372Z"/><g><path id="uuid-1b03a630-7e31-41b5-b302-96493ff31189-117" fill="#ffb6b6" d="M468.93625,244.36122c4.51538,5.40957,5.38427,12.12429,1.94111,14.99735-3.44316,2.87305-9.89353,.81637-14.40979-4.59574-1.83372-2.13717-3.12896-4.6824-3.77735-7.42276l-18.84239-23.1622,9.17843-7.42782,19.28065,22.56531c2.58106,1.12838,4.85427,2.85861,6.62935,5.04587Z"/><polygon fill="#e6e6e6" points="386.589 129.878 380.031 155.854 412.128 207.233 444.894 240.164 455.514 231.353 422.469 190.237 397.421 137.259 386.589 129.878"/></g><g><ellipse cx="459.129" cy="52.448" fill="#1a60ca" rx="41.5" ry="52.5" transform="translate(-2.61679 33.98) rotate(-4.22648)"/><rect width="2" height="199.438" x="460.129" y="104.805" fill="#2f2e41"/><polygon fill="#8435de" points="462.626 100.594 462.866 107.661 466.06 114.203 452.736 113.523 458.336 107.89 457.703 101.469 462.626 100.594"/></g><g><circle cx="343.719" cy="85.562" r="27.534" fill="#ffb6b6"/><path fill="#2f2e41" d="M341.52141,48.54491c.79671,.46507,1.86389-.23857,2.11935-1.12501s-.04212-1.82761-.33722-2.70165l-1.48558-4.40008c-1.0536-3.12063-2.17183-6.35032-4.45368-8.72552-3.44408-3.58499-8.91753-4.497-13.84474-3.83628-6.3275,.84849-12.57056,4.27476-15.51267,9.94055-2.9421,5.66579-1.68954,13.5716,3.62665,17.10648-7.57673,8.68419-10.21786,18.36242-9.80083,29.87971,.41702,11.51729,12.96805,22.11696,21.153,30.23044,1.82785-1.10801,3.48957-6.30065,2.48442-8.18702s.435-4.07179-.80984-5.80934-2.28631,1.02915-1.0278-.69854c.79414-1.0902-2.30536-3.59827-1.12493-4.25078,5.70958-3.15606,7.60854-10.2728,11.19452-15.72263,4.32536-6.57351,11.72821-11.02516,19.56239-11.76369,4.31558-.40683,8.87377,.33002,12.41109,2.83544,3.53731,2.50542,5.82735,6.98256,5.00708,11.23896,2.12436-2.157,3.18182-5.31809,2.78297-8.31917-.39885-3.00108-2.24525-5.77623-4.85926-7.3035,1.58943-5.25615,.22781-11.30225-3.46132-15.36964s-18.65428-3.37463-24.04014-2.30417"/><path fill="#2f2e41" d="M340.68501,68.64111c-7.1334,.77005-12.28392,6.94917-16.63311,12.65557-2.50677,3.28904-5.13259,6.92124-5.06965,11.05618,.06363,4.18054,2.85874,7.76625,4.19457,11.72813,2.18345,6.47581,.05542,14.18053-5.14218,18.61771,5.13581,.97458,10.68776-2.87625,11.57437-8.02797,1.03212-5.99724-3.51408-11.7855-2.97566-17.84704,.47435-5.34029,4.68273-9.45028,8.26047-13.4432,3.57775-3.99292,6.93788-9.29143,5.29193-14.39384"/></g><path fill="#fff" d="M314.42637,234.55793H108.75752c-23.32296,0-42.22995,18.90699-42.22995,42.22995v199.43289c0,23.32291,18.90695,42.22986,42.22986,42.22986h205.66894c23.32296,0,42.22995-18.90699,42.22995-42.22995v-199.43281c0-23.32296-18.90699-42.22995-42.22995-42.22995Z"/><path fill="#3f3d56" d="M314.42649,519.45019H108.75754c-23.83691,0-43.22998-19.39258-43.22998-43.22949v-199.43262c0-23.83691,19.39307-43.22998,43.22998-43.22998h205.66895c23.83691,0,43.22998,19.39307,43.22998,43.22998v199.43262c0,23.83691-19.39307,43.22949-43.22998,43.22949ZM108.75754,235.5581c-22.73438,0-41.22998,18.49561-41.22998,41.22998v199.43262c0,22.73438,18.49561,41.22949,41.22998,41.22949h205.66895c22.73438,0,41.22998-18.49512,41.22998-41.22949v-199.43262c0-22.73437-18.49561-41.22998-41.22998-41.22998H108.75754Z"/><circle cx="292.725" cy="249.408" r="4.769" fill="#3f3d56"/><circle cx="305.84" cy="249.408" r="4.769" fill="#3f3d56"/><circle cx="318.955" cy="249.408" r="4.769" fill="#3f3d56"/><path fill="#e6e6e6" d="M102.01538,448.63094c-1.48165,0-2.68692,1.20526-2.68692,2.68692,0,.72246,.27901,1.39069,.78543,1.88399,.51079,.52304,1.1799,.80293,1.90148,.80293h215.09838c1.48165,0,2.68692-1.20526,2.68692-2.68692,0-.72246-.27901-1.39069-.78543-1.88399-.51079-.52304-1.1799-.80293-1.90148-.80293H102.01538Z"/><path fill="#1a60ca" d="M217.02966,447.7353v7.16511H102.01538c-.98518,0-1.88082-.39414-2.52565-1.0569-.66287-.64483-1.0569-1.54047-1.0569-2.52565,0-1.97047,1.61219-3.58255,3.58255-3.58255h115.01428Z"/><path fill="#e6e6e6" d="M312.63557,434.30072h-35.82554c-3.95078,0-7.16511-3.21345-7.16511-7.16511s3.21433-7.16511,7.16511-7.16511h35.82554c3.95078,0,7.16511,3.21345,7.16511,7.16511s-3.21433,7.16511-7.16511,7.16511Z"/><g><polyline fill="#2f2e41" points="178.044 439.422 153 355.274 151.083 355.844 176.039 439.696"/><ellipse cx="175.042" cy="195.559" fill="#1a60ca" rx="41.5" ry="52.5" transform="translate(-13.93649 13.43225) rotate(-4.22648)"/><rect width="2" height="199.438" x="176.042" y="247.916" fill="#2f2e41"/><polygon fill="#1a60ca" points="154.126 352.836 156.371 359.541 161.298 364.901 148.333 368.049 152.095 361.052 149.657 355.078 154.126 352.836"/><polygon fill="#1a60ca" points="178.54 243.705 178.78 250.772 181.973 257.314 168.649 256.634 174.25 251.001 173.617 244.579 178.54 243.705"/><ellipse cx="136.042" cy="305.559" fill="#1a60ca" rx="41.5" ry="52.5" transform="translate(-100.19337 68.77521) rotate(-20.93384)"/></g><path id="uuid-b40723c2-846b-43d4-8d7a-d7be28bdc184-118" fill="#ffb6b6" d="M336.50935,224.32158c6.7457,2.0366,11.16281,7.16803,9.866,11.46082-1.29681,4.29279-7.81569,6.12073-14.56352,4.0825-2.70665-.77722-5.18781-2.19132-7.2359-4.12401l-28.47282-8.99009,3.58382-11.25044,28.51078,8.25056c2.77637-.4763,5.62645-.28063,8.31164,.57066Z"/><path fill="#e6e6e6" d="M287.04192,150.55879l30-22-1,42-28,36,30,12-1,17.13379s-38-9.13379-44-10.13379-11-15-11-15l25-60Z"/></svg>