<svg xmlns="http://www.w3.org/2000/svg" width="360" height="360" fill="none" viewBox="0 0 360 360"><path fill="#FFBF00" d="M88.5168 315.655H43.3871V323.849H88.5168V315.655Z"/><path fill="#263238" d="M47.808 323.906C47.5584 321.203 47.5584 318.481 47.808 315.778C48.0576 318.481 48.0576 321.203 47.808 323.906Z"/><path fill="#263238" d="M45.36 323.906C45.1104 321.203 45.1104 318.481 45.36 315.778C45.6096 318.481 45.6096 321.203 45.36 323.906Z"/><path fill="#263238" d="M53.2296 323.906C52.98 321.203 52.98 318.481 53.2296 315.778C53.4792 318.481 53.4792 321.203 53.2296 323.906Z"/><path fill="#263238" d="M50.7672 323.906C50.508 321.203 50.508 318.481 50.7672 315.778C51.0168 318.481 51.0168 321.203 50.7672 323.906Z"/><path fill="#263238" d="M58.6584 323.906C58.3992 321.203 58.3992 318.481 58.6584 315.778C58.908 318.481 58.908 321.203 58.6584 323.906Z"/><path fill="#263238" d="M56.16 323.906C55.9104 321.203 55.9104 318.481 56.16 315.778C56.4096 318.481 56.4096 321.203 56.16 323.906Z"/><path fill="#263238" d="M64.08 323.906C63.8304 321.203 63.8304 318.481 64.08 315.778C64.3296 318.481 64.3296 321.203 64.08 323.906Z"/><path fill="#263238" d="M61.6104 323.906C61.3608 321.203 61.3608 318.481 61.6104 315.778C61.86 318.481 61.86 321.203 61.6104 323.906Z"/><path fill="#263238" d="M69.5016 323.906C69.252 321.203 69.252 318.481 69.5016 315.778C69.7512 318.481 69.7512 321.203 69.5016 323.906Z"/><path fill="#263238" d="M67.032 323.906C66.7824 321.203 66.7824 318.481 67.032 315.778C67.2816 318.481 67.2816 321.203 67.032 323.906Z"/><path fill="#263238" d="M74.9232 323.906C74.6736 321.203 74.6736 318.481 74.9232 315.778C75.1728 318.481 75.1728 321.203 74.9232 323.906Z"/><path fill="#263238" d="M72.4536 323.906C72.204 321.203 72.204 318.481 72.4536 315.778C72.7032 318.481 72.7032 321.203 72.4536 323.906Z"/><path fill="#263238" d="M80.3448 323.906C80.0952 321.203 80.0952 318.481 80.3448 315.778C80.5944 318.481 80.5944 321.203 80.3448 323.906Z"/><path fill="#263238" d="M77.8752 323.906C77.6256 321.203 77.6256 318.481 77.8752 315.778C78.1248 318.481 78.1248 321.203 77.8752 323.906Z"/><path fill="#263238" d="M85.7664 323.906C85.5168 321.203 85.5168 318.481 85.7664 315.778C86.016 318.481 86.016 321.203 85.7664 323.906Z"/><path fill="#263238" d="M83.2968 323.906C83.0472 321.203 83.0472 318.481 83.2968 315.778C83.5559 318.481 83.5559 321.203 83.2968 323.906Z"/><path fill="#263238" d="M88.5168 315.655C88.5168 315.756 78.3432 315.842 65.7936 315.842C53.244 315.842 43.0704 315.756 43.0704 315.655C43.0704 315.554 53.244 315.468 65.7936 315.468C78.3432 315.468 88.5168 315.547 88.5168 315.655Z"/><path fill="#FFBF00" d="M84.9816 323.784H39.852V331.978H84.9816V323.784Z"/><path fill="#263238" d="M44.2728 332.035C44.0232 329.331 44.0232 326.61 44.2728 323.906C44.5224 326.61 44.5224 329.331 44.2728 332.035Z"/><path fill="#263238" d="M41.8032 332.035C41.5536 329.331 41.5536 326.61 41.8032 323.906C42.0528 326.61 42.0528 329.331 41.8032 332.035Z"/><path fill="#263238" d="M49.68 332.035C49.4304 329.331 49.4304 326.61 49.68 323.906C49.9296 326.61 49.9296 329.331 49.68 332.035Z"/><path fill="#263238" d="M47.2248 332.035C46.9752 329.331 46.9752 326.61 47.2248 323.906C47.4744 326.61 47.4744 329.331 47.2248 332.035Z"/><path fill="#263238" d="M55.116 332.035C54.8664 329.331 54.8664 326.61 55.116 323.906C55.3656 326.61 55.3656 329.331 55.116 332.035Z"/><path fill="#263238" d="M52.6464 332.035C52.3968 329.331 52.3968 326.61 52.6464 323.906C52.896 326.61 52.896 329.331 52.6464 332.035Z"/><path fill="#263238" d="M60.5376 332.035C60.288 329.331 60.288 326.61 60.5376 323.906C60.7872 326.61 60.7872 329.331 60.5376 332.035Z"/><path fill="#263238" d="M58.068 332.035C57.8184 329.331 57.8184 326.61 58.068 323.906C58.3272 326.61 58.3272 329.332 58.068 332.035Z"/><path fill="#263238" d="M65.9664 332.035C65.7072 329.332 65.7072 326.61 65.9664 323.906C66.216 326.61 66.216 329.331 65.9664 332.035Z"/><path fill="#263238" d="M63.4968 332.035C63.2472 329.331 63.2472 326.61 63.4968 323.906C63.7464 326.61 63.7464 329.331 63.4968 332.035Z"/><path fill="#263238" d="M71.388 332.035C71.1384 329.331 71.1384 326.61 71.388 323.906C71.6376 326.61 71.6376 329.331 71.388 332.035Z"/><path fill="#263238" d="M68.9184 332.035C68.6688 329.331 68.6688 326.61 68.9184 323.906C69.168 326.61 69.168 329.331 68.9184 332.035Z"/><path fill="#263238" d="M76.8096 332.035C76.56 329.331 76.56 326.61 76.8096 323.906C77.0592 326.61 77.0592 329.331 76.8096 332.035Z"/><path fill="#263238" d="M74.34 332.035C74.0904 329.331 74.0904 326.61 74.34 323.906C74.5896 326.61 74.5896 329.331 74.34 332.035Z"/><path fill="#263238" d="M82.2312 332.035C81.9816 329.331 81.9816 326.61 82.2312 323.906C82.4808 326.61 82.4808 329.331 82.2312 332.035Z"/><path fill="#263238" d="M79.7616 332.035C79.512 329.331 79.512 326.61 79.7616 323.906C80.0112 326.61 80.0112 329.331 79.7616 332.035Z"/><path fill="#263238" d="M84.96 323.784C84.96 323.885 74.808 323.971 62.2872 323.971C49.7664 323.971 39.6216 323.885 39.6216 323.784C39.6216 323.683 49.7664 323.597 62.2872 323.597C74.808 323.597 84.96 323.683 84.96 323.784Z"/><path fill="#FFBF00" d="M82.08 332.035H36.9504V340.229H82.08V332.035Z"/><path fill="#263238" d="M41.3712 340.286C41.1216 337.583 41.1216 334.861 41.3712 332.158C41.6208 334.861 41.6208 337.583 41.3712 340.286Z"/><path fill="#263238" d="M38.88 340.286C38.6303 337.583 38.6303 334.861 38.88 332.158C39.1296 334.861 39.1296 337.583 38.88 340.286Z"/><path fill="#263238" d="M46.8 340.286C46.5504 337.583 46.5504 334.861 46.8 332.158C47.0496 334.861 47.0496 337.583 46.8 340.286Z"/><path fill="#263238" d="M44.3232 340.286C44.0736 337.583 44.0736 334.861 44.3232 332.158C44.5824 334.861 44.5824 337.583 44.3232 340.286Z"/><path fill="#263238" d="M52.2144 340.286C51.9648 337.583 51.9648 334.861 52.2144 332.158C52.4735 334.861 52.4735 337.583 52.2144 340.286Z"/><path fill="#263238" d="M49.752 340.286C49.5024 337.583 49.5024 334.861 49.752 332.158C50.0016 334.861 50.0016 337.583 49.752 340.286Z"/><path fill="#263238" d="M57.6432 340.286C57.3936 337.583 57.3936 334.861 57.6432 332.158C57.8928 334.861 57.8928 337.583 57.6432 340.286Z"/><path fill="#263238" d="M55.1736 340.286C54.924 337.583 54.924 334.861 55.1736 332.158C55.4232 334.861 55.4232 337.583 55.1736 340.286Z"/><path fill="#263238" d="M63.0648 340.286C62.8152 337.583 62.8152 334.861 63.0648 332.158C63.3144 334.861 63.3144 337.583 63.0648 340.286Z"/><path fill="#263238" d="M60.5952 340.286C60.3456 337.583 60.3456 334.861 60.5952 332.158C60.8448 334.861 60.8448 337.583 60.5952 340.286Z"/><path fill="#263238" d="M68.4864 340.286C68.2368 337.583 68.2368 334.861 68.4864 332.158C68.736 334.861 68.736 337.583 68.4864 340.286Z"/><path fill="#263238" d="M66.0168 340.286C65.7672 337.583 65.7672 334.861 66.0168 332.158C66.2664 334.861 66.2664 337.583 66.0168 340.286Z"/><path fill="#263238" d="M73.908 340.286C73.6584 337.583 73.6584 334.861 73.908 332.158C74.1576 334.861 74.1576 337.583 73.908 340.286Z"/><path fill="#263238" d="M71.4384 340.286C71.1888 337.583 71.1888 334.861 71.4384 332.158C71.688 334.861 71.688 337.583 71.4384 340.286Z"/><path fill="#263238" d="M79.3296 340.286C79.08 337.583 79.08 334.861 79.3296 332.158C79.5792 334.861 79.5792 337.583 79.3296 340.286Z"/><path fill="#263238" d="M76.86 340.286C76.6104 337.583 76.6104 334.861 76.86 332.158C77.1096 334.861 77.1096 337.583 76.86 340.286Z"/><path fill="#263238" d="M82.08 332.035C82.08 332.143 71.928 332.222 59.4144 332.222C46.9008 332.222 36.72 332.143 36.72 332.035C36.72 331.927 46.8648 331.848 59.3928 331.848C71.9208 331.848 82.08 331.92 82.08 332.035Z"/><g opacity=".3"><path fill="#000" d="M45.9792 323.863C52.8213 325.429 59.8624 325.941 66.8592 325.382C73.7784 324.922 80.7768 323.906 87.7392 323.986L45.9792 323.863Z"/></g><g opacity=".3"><path fill="#000" d="M37.5048 332.143C44.3472 333.708 51.3884 334.217 58.3848 333.655C65.3112 333.194 72.3024 332.179 79.2648 332.266L37.5048 332.143Z"/></g><path fill="#fff" d="M44.9496 316.145C44.9496 316.246 44.6976 316.332 44.388 316.332C44.0784 316.332 43.8192 316.246 43.8192 316.145C43.8192 316.044 44.0712 315.95 44.388 315.95C44.7048 315.95 44.9496 316.037 44.9496 316.145Z"/><path fill="#fff" d="M51.2207 316.166C50.3699 316.351 49.4972 316.414 48.6287 316.354C47.7602 316.414 46.8876 316.351 46.0367 316.166C46.887 315.978 47.7602 315.915 48.6287 315.979C49.4973 315.915 50.3705 315.978 51.2207 316.166Z"/><path fill="#fff" d="M58.3776 316.166C57.5267 316.351 56.6541 316.414 55.7856 316.354C54.9195 316.413 54.0492 316.35 53.2008 316.166C54.0486 315.978 54.9195 315.915 55.7856 315.979C56.6541 315.915 57.5273 315.978 58.3776 316.166Z"/><path fill="#FFBF00" d="M339.43 295.884H290.88V304.704H339.43V295.884Z"/><path fill="#263238" d="M295.639 304.762C295.37 301.854 295.37 298.928 295.639 296.021C295.908 298.928 295.908 301.854 295.639 304.762Z"/><path fill="#263238" d="M292.982 304.762C292.714 301.854 292.714 298.928 292.982 296.021C293.251 298.928 293.251 301.854 292.982 304.762Z"/><path fill="#263238" d="M301.471 304.762C301.202 301.854 301.202 298.928 301.471 296.021C301.74 298.928 301.74 301.854 301.471 304.762Z"/><path fill="#263238" d="M298.8 304.762C298.531 301.854 298.531 298.928 298.8 296.021C299.078 298.928 299.078 301.855 298.8 304.762Z"/><path fill="#263238" d="M307.31 304.762C307.032 301.855 307.032 298.928 307.31 296.021C307.579 298.928 307.579 301.854 307.31 304.762Z"/><path fill="#263238" d="M304.654 304.762C304.385 301.854 304.385 298.928 304.654 296.021C304.922 298.928 304.922 301.854 304.654 304.762Z"/><path fill="#263238" d="M313.142 304.762C312.874 301.854 312.874 298.928 313.142 296.021C313.411 298.928 313.411 301.854 313.142 304.762Z"/><path fill="#263238" d="M310.486 304.762C310.217 301.854 310.217 298.928 310.486 296.021C310.754 298.928 310.754 301.854 310.486 304.762Z"/><path fill="#263238" d="M318.96 304.762C318.691 301.854 318.691 298.928 318.96 296.021C319.229 298.928 319.229 301.854 318.96 304.762Z"/><path fill="#263238" d="M316.318 304.762C316.049 301.854 316.049 298.928 316.318 296.021C316.586 298.928 316.586 301.854 316.318 304.762Z"/><path fill="#263238" d="M324.806 304.762C324.538 301.854 324.538 298.928 324.806 296.021C325.075 298.928 325.075 301.854 324.806 304.762Z"/><path fill="#263238" d="M322.15 304.762C321.881 301.854 321.881 298.928 322.15 296.021C322.428 298.928 322.428 301.855 322.15 304.762Z"/><path fill="#263238" d="M330.646 304.762C330.377 301.854 330.377 298.928 330.646 296.021C330.914 298.928 330.914 301.854 330.646 304.762Z"/><path fill="#263238" d="M327.989 304.762C327.72 301.854 327.72 298.928 327.989 296.021C328.258 298.928 328.258 301.854 327.989 304.762Z"/><path fill="#263238" d="M336.478 304.762C336.209 301.854 336.209 298.928 336.478 296.021C336.746 298.928 336.746 301.854 336.478 304.762Z"/><path fill="#263238" d="M333.821 304.762C333.552 301.854 333.552 298.928 333.821 296.021C334.09 298.928 334.09 301.854 333.821 304.762Z"/><path fill="#263238" d="M339.437 295.92C339.437 296.035 328.514 296.122 315.043 296.122C301.572 296.122 290.657 296.035 290.657 295.92C290.657 295.805 301.572 295.718 315.043 295.718C328.514 295.718 339.437 295.776 339.437 295.92Z"/><path fill="#FFBF00" d="M336.254 304.841H287.705V313.661H336.254V304.841Z"/><path fill="#263238" d="M292.464 313.718C292.195 310.809 292.195 307.88 292.464 304.97C292.733 307.88 292.733 310.809 292.464 313.718Z"/><path fill="#263238" d="M289.807 313.718C289.538 310.809 289.538 307.88 289.807 304.97C290.076 307.88 290.076 310.809 289.807 313.718Z"/><path fill="#263238" d="M298.296 313.718C298.027 310.809 298.027 307.88 298.296 304.97C298.565 307.88 298.565 310.809 298.296 313.718Z"/><path fill="#263238" d="M295.639 313.718C295.37 310.809 295.37 307.88 295.639 304.97C295.908 307.88 295.908 310.809 295.639 313.718Z"/><path fill="#263238" d="M304.128 313.718C303.859 310.809 303.859 307.88 304.128 304.97C304.397 307.88 304.397 310.809 304.128 313.718Z"/><path fill="#263238" d="M301.471 313.718C301.202 310.809 301.202 307.88 301.471 304.97C301.74 307.88 301.74 310.809 301.471 313.718Z"/><path fill="#263238" d="M309.96 313.718C309.691 310.809 309.691 307.88 309.96 304.97C310.229 307.88 310.229 310.809 309.96 313.718Z"/><path fill="#263238" d="M307.31 313.718C307.032 310.809 307.032 307.88 307.31 304.97C307.579 307.88 307.579 310.809 307.31 313.718Z"/><path fill="#263238" d="M315.799 313.718C315.53 310.809 315.53 307.88 315.799 304.97C316.068 307.88 316.068 310.809 315.799 313.718Z"/><path fill="#263238" d="M313.142 313.718C312.873 310.809 312.873 307.88 313.142 304.97C313.411 307.88 313.411 310.809 313.142 313.718Z"/><path fill="#263238" d="M321.631 313.718C321.362 310.809 321.362 307.88 321.631 304.97C321.9 307.88 321.9 310.809 321.631 313.718Z"/><path fill="#263238" d="M318.96 313.718C318.691 310.809 318.691 307.88 318.96 304.97C319.229 307.88 319.229 310.809 318.96 313.718Z"/><path fill="#263238" d="M327.463 313.718C327.194 310.809 327.194 307.88 327.463 304.97C327.732 307.88 327.732 310.809 327.463 313.718Z"/><path fill="#263238" d="M324.806 313.718C324.537 310.809 324.537 307.88 324.806 304.97C325.075 307.88 325.075 310.809 324.806 313.718Z"/><path fill="#263238" d="M333.295 313.718C333.026 310.809 333.026 307.88 333.295 304.97C333.564 307.88 333.564 310.809 333.295 313.718Z"/><path fill="#263238" d="M330.646 313.718C330.377 310.809 330.377 307.88 330.646 304.97C330.915 307.88 330.915 310.809 330.646 313.718Z"/><path fill="#263238" d="M336.24 304.841C336.24 304.956 325.325 305.042 311.854 305.042C298.382 305.042 287.467 304.956 287.467 304.841C287.467 304.726 298.382 304.639 311.854 304.639C325.325 304.639 336.24 304.733 336.24 304.841Z"/><path fill="#FFBF00" d="M340.222 313.718H291.672V322.538H340.222V313.718Z"/><path fill="#263238" d="M296.431 322.596C296.162 319.686 296.162 316.758 296.431 313.848C296.7 316.758 296.7 319.686 296.431 322.596Z"/><path fill="#263238" d="M293.76 322.596C293.491 319.686 293.491 316.758 293.76 313.848C294.029 316.758 294.029 319.686 293.76 322.596Z"/><path fill="#263238" d="M302.263 322.596C301.994 319.686 301.994 316.758 302.263 313.848C302.532 316.758 302.532 319.686 302.263 322.596Z"/><path fill="#263238" d="M299.606 322.596C299.337 319.686 299.337 316.758 299.606 313.848C299.875 316.758 299.875 319.686 299.606 322.596Z"/><path fill="#263238" d="M308.095 322.596C307.826 319.686 307.826 316.758 308.095 313.848C308.364 316.758 308.364 319.686 308.095 322.596Z"/><path fill="#263238" d="M305.438 322.596C305.169 319.686 305.169 316.758 305.438 313.848C305.707 316.758 305.707 319.686 305.438 322.596Z"/><path fill="#263238" d="M313.92 322.596C313.651 319.686 313.651 316.758 313.92 313.848C314.198 316.757 314.198 319.687 313.92 322.596Z"/><path fill="#263238" d="M311.278 322.596C311.009 319.686 311.009 316.758 311.278 313.848C311.547 316.758 311.547 319.686 311.278 322.596Z"/><path fill="#263238" d="M319.766 322.596C319.497 319.686 319.497 316.758 319.766 313.848C320.035 316.758 320.035 319.686 319.766 322.596Z"/><path fill="#263238" d="M317.11 322.596C316.841 319.686 316.841 316.758 317.11 313.848C317.379 316.758 317.379 319.686 317.11 322.596Z"/><path fill="#263238" d="M325.598 322.596C325.329 319.686 325.329 316.758 325.598 313.848C325.867 316.758 325.867 319.686 325.598 322.596Z"/><path fill="#263238" d="M322.942 322.596C322.673 319.686 322.673 316.758 322.942 313.848C323.211 316.758 323.211 319.686 322.942 322.596Z"/><path fill="#263238" d="M331.43 322.596C331.161 319.686 331.161 316.758 331.43 313.848C331.699 316.758 331.699 319.686 331.43 322.596Z"/><path fill="#263238" d="M328.774 322.596C328.505 319.686 328.505 316.758 328.774 313.848C329.043 316.758 329.043 319.686 328.774 322.596Z"/><path fill="#263238" d="M337.262 322.596C336.993 319.686 336.993 316.758 337.262 313.848C337.541 316.757 337.541 319.687 337.262 322.596Z"/><path fill="#263238" d="M334.613 322.596C334.344 319.686 334.344 316.758 334.613 313.848C334.882 316.758 334.882 319.686 334.613 322.596Z"/><path fill="#263238" d="M340.222 313.718C340.222 313.834 329.278 313.92 315.778 313.92C302.278 313.92 291.298 313.834 291.298 313.718C291.298 313.603 302.242 313.517 315.778 313.517C329.314 313.517 340.222 313.61 340.222 313.718Z"/><path fill="#FFBF00" d="M336.413 322.466H287.863V331.286H336.413V322.466Z"/><path fill="#263238" d="M292.622 331.344C292.353 328.434 292.353 325.506 292.622 322.596C292.891 325.506 292.891 328.434 292.622 331.344Z"/><path fill="#263238" d="M289.966 331.344C289.697 328.434 289.697 325.506 289.966 322.596C290.235 325.506 290.235 328.434 289.966 331.344Z"/><path fill="#263238" d="M298.454 331.344C298.185 328.434 298.185 325.506 298.454 322.596C298.723 325.506 298.723 328.434 298.454 331.344Z"/><path fill="#263238" d="M295.798 331.344C295.529 328.434 295.529 325.506 295.798 322.596C296.076 325.505 296.076 328.435 295.798 331.344Z"/><path fill="#263238" d="M304.294 331.344C304.025 328.434 304.025 325.506 304.294 322.596C304.563 325.506 304.563 328.434 304.294 331.344Z"/><path fill="#263238" d="M301.637 331.344C301.368 328.434 301.368 325.506 301.637 322.596C301.906 325.506 301.906 328.434 301.637 331.344Z"/><path fill="#263238" d="M310.126 331.344C309.857 328.434 309.857 325.506 310.126 322.596C310.395 325.506 310.395 328.434 310.126 331.344Z"/><path fill="#263238" d="M307.44 331.344C307.171 328.434 307.171 325.506 307.44 322.596C307.709 325.506 307.709 328.434 307.44 331.344Z"/><path fill="#263238" d="M315.958 331.344C315.689 328.434 315.689 325.506 315.958 322.596C316.227 325.506 316.227 328.434 315.958 331.344Z"/><path fill="#263238" d="M313.301 331.344C313.032 328.434 313.032 325.506 313.301 322.596C313.57 325.506 313.57 328.434 313.301 331.344Z"/><path fill="#263238" d="M321.79 331.344C321.521 328.434 321.521 325.506 321.79 322.596C322.059 325.506 322.059 328.434 321.79 331.344Z"/><path fill="#263238" d="M319.14 331.344C318.862 328.435 318.862 325.505 319.14 322.596C319.409 325.506 319.409 328.434 319.14 331.344Z"/><path fill="#263238" d="M327.6 331.344C327.331 328.434 327.331 325.506 327.6 322.596C327.869 325.506 327.869 328.434 327.6 331.344Z"/><path fill="#263238" d="M324.972 331.344C324.703 328.434 324.703 325.506 324.972 322.596C325.241 325.506 325.241 328.434 324.972 331.344Z"/><path fill="#263238" d="M333.461 331.344C333.192 328.434 333.192 325.506 333.461 322.596C333.73 325.506 333.73 328.434 333.461 331.344Z"/><path fill="#263238" d="M330.804 331.344C330.535 328.434 330.535 325.506 330.804 322.596C331.073 325.506 331.073 328.434 330.804 331.344Z"/><path fill="#263238" d="M336.42 322.466C336.42 322.582 325.498 322.668 312.026 322.668C298.555 322.668 287.64 322.582 287.64 322.466C287.64 322.351 298.555 322.265 312.026 322.265C325.498 322.265 336.42 322.358 336.42 322.466Z"/><path fill="#FFBF00" d="M341.28 331.409H292.73V340.229H341.28V331.409Z"/><path fill="#263238" d="M297.49 340.286C297.221 337.377 297.221 334.448 297.49 331.538C297.759 334.448 297.759 337.377 297.49 340.286Z"/><path fill="#263238" d="M294.833 340.286C294.564 337.377 294.564 334.448 294.833 331.538C295.102 334.448 295.102 337.377 294.833 340.286Z"/><path fill="#263238" d="M303.322 340.286C303.053 337.377 303.053 334.448 303.322 331.538C303.591 334.448 303.591 337.377 303.322 340.286Z"/><path fill="#263238" d="M300.665 340.286C300.396 337.377 300.396 334.448 300.665 331.538C300.934 334.448 300.934 337.377 300.665 340.286Z"/><path fill="#263238" d="M309.154 340.286C308.885 337.377 308.885 334.448 309.154 331.538C309.423 334.448 309.423 337.377 309.154 340.286Z"/><path fill="#263238" d="M306.504 340.286C306.226 337.377 306.226 334.448 306.504 331.538C306.773 334.448 306.773 337.377 306.504 340.286Z"/><path fill="#263238" d="M314.993 340.286C314.724 337.377 314.724 334.448 314.993 331.538C315.262 334.448 315.262 337.377 314.993 340.286Z"/><path fill="#263238" d="M312.336 340.286C312.067 337.377 312.067 334.448 312.336 331.538C312.605 334.448 312.605 337.377 312.336 340.286Z"/><path fill="#263238" d="M320.825 340.286C320.556 337.377 320.556 334.448 320.825 331.538C321.094 334.448 321.094 337.377 320.825 340.286Z"/><path fill="#263238" d="M318.168 340.286C317.899 337.377 317.899 334.448 318.168 331.538C318.437 334.448 318.437 337.377 318.168 340.286Z"/><path fill="#263238" d="M326.657 340.286C326.388 337.377 326.388 334.448 326.657 331.538C326.926 334.448 326.926 337.377 326.657 340.286Z"/><path fill="#263238" d="M324 340.286C323.731 337.377 323.731 334.448 324 331.538C324.269 334.448 324.269 337.377 324 340.286Z"/><path fill="#263238" d="M332.489 340.286C332.22 337.377 332.22 334.448 332.489 331.538C332.758 334.448 332.758 337.377 332.489 340.286Z"/><path fill="#263238" d="M329.839 340.286C329.57 337.377 329.57 334.448 329.839 331.538C330.108 334.448 330.108 337.377 329.839 340.286Z"/><path fill="#263238" d="M338.328 340.286C338.059 337.377 338.059 334.448 338.328 331.538C338.597 334.448 338.597 337.377 338.328 340.286Z"/><path fill="#263238" d="M335.671 340.286C335.402 337.377 335.402 334.448 335.671 331.538C335.94 334.448 335.94 337.377 335.671 340.286Z"/><path fill="#263238" d="M341.28 331.409C341.28 331.524 330.365 331.61 316.894 331.61C303.422 331.61 292.507 331.524 292.507 331.409C292.507 331.294 303.422 331.207 316.894 331.207C330.365 331.207 341.28 331.301 341.28 331.409Z"/><g opacity=".3"><path fill="#000" d="M291.672 313.718C299.021 315.405 306.584 315.959 314.1 315.36C321.552 314.863 329.076 313.769 336.542 313.855L291.672 313.718Z"/></g><g opacity=".3"><path fill="#000" d="M292.111 304.942C299.46 306.626 307.024 307.177 314.539 306.576C321.991 306.079 329.515 304.985 336.982 305.071L292.111 304.942Z"/></g><g opacity=".3"><path fill="#000" d="M294.48 322.56C301.829 324.244 309.392 324.795 316.908 324.194C324.36 323.698 331.884 322.603 339.35 322.697L294.48 322.56Z"/></g><g opacity=".3"><path fill="#000" d="M292.558 331.358C299.908 333.037 307.47 333.585 314.986 332.986C322.438 332.496 329.962 331.394 337.428 331.488L292.558 331.358Z"/></g><path fill="#fff" d="M291.773 301.918C291.504 300.318 291.504 298.686 291.773 297.086C292.042 298.686 292.042 300.318 291.773 301.918Z"/><path fill="#fff" d="M288.72 311.335C288.451 309.62 288.451 307.874 288.72 306.158C288.989 307.874 288.989 309.62 288.72 311.335Z"/><path fill="#fff" d="M293.04 320.4C292.771 318.881 292.771 317.326 293.04 315.806C293.309 317.326 293.309 318.881 293.04 320.4Z"/><path fill="#fff" d="M288.59 328.766C288.322 327.407 288.322 326.008 288.59 324.648C288.859 326.008 288.859 327.407 288.59 328.766Z"/><path fill="#fff" d="M306.374 305.568C306.374 305.676 302.774 305.77 298.368 305.77C293.962 305.77 290.362 305.676 290.362 305.568C293.025 305.364 295.697 305.297 298.368 305.366C301.038 305.297 303.711 305.364 306.374 305.568Z"/><path fill="#fff" d="M311.558 297.086C308.873 297.29 306.179 297.357 303.487 297.288C300.797 297.357 298.106 297.29 295.423 297.086C295.423 296.978 299.023 296.885 303.487 296.885C307.951 296.885 311.558 296.978 311.558 297.086Z"/><path fill="#fff" d="M319.327 297.209C317.571 297.478 315.784 297.478 314.028 297.209C315.784 296.94 317.571 296.94 319.327 297.209Z"/><path fill="#455A64" d="M72.5904 114.264L93.0528 124.783L122.782 105.394L132.761 117.576L101.102 142.603L78.7968 142.61L64.9008 122.904L72.5904 114.264Z"/><path fill="#455A64" d="M78.7896 142.632L64.872 122.904L72.5688 114.264L93.024 124.783L122.76 105.394L132.746 117.583L101.066 142.618H78.7464L78.7896 142.632Z"/><g opacity=".3"><path fill="#000" d="M72.5904 114.264L93.0528 124.783L123.25 104.796L132.761 117.576L101.102 142.603L78.7968 142.61L64.9008 122.904L72.5904 114.264Z"/></g><path fill="#FFBF00" d="M181.534 114.703C178.641 121.835 173.697 127.948 167.328 132.268C160.959 136.588 153.451 138.92 145.756 138.97C138.06 139.02 130.523 136.785 124.098 132.548C117.674 128.311 112.651 122.262 109.667 115.169C106.682 108.075 105.87 100.255 107.333 92.6995C108.796 85.144 112.468 78.1926 117.885 72.7257C123.302 67.2588 130.219 63.5224 137.761 61.9898C145.303 60.4571 153.13 61.1971 160.25 64.116C169.778 68.0051 177.372 75.5183 181.363 85.0041C185.354 94.4899 185.415 105.172 181.534 114.703Z"/><path fill="#FFBF00" d="M172.973 111.204C170.767 116.631 167 121.282 162.15 124.568C157.299 127.854 151.583 129.626 145.724 129.662C139.866 129.697 134.129 127.994 129.239 124.767C124.349 121.54 120.526 116.935 118.255 111.535C115.983 106.135 115.365 100.182 116.478 94.43C117.592 88.6782 120.386 83.386 124.509 79.2232C128.631 75.0605 133.896 72.2144 139.637 71.0452C145.378 69.876 151.336 70.4363 156.758 72.6552C164.019 75.6183 169.806 81.3437 172.847 88.5725C175.887 95.8013 175.933 103.942 172.973 111.204Z"/><path fill="#263238" d="M172.973 111.204C173.005 111.045 173.049 110.889 173.102 110.736L173.52 109.44C173.614 109.145 173.729 108.814 173.844 108.461C173.959 108.108 174.031 107.683 174.132 107.244C174.399 106.242 174.591 105.222 174.708 104.191C175.107 101.373 175.076 98.5109 174.614 95.7024C173.573 88.9635 170.22 82.7963 165.132 78.2569C160.044 73.7175 153.535 71.0882 146.722 70.8192C145.329 70.7596 143.934 70.7933 142.546 70.92C141.826 70.992 141.149 71.136 140.45 71.2368C139.74 71.3382 139.037 71.4897 138.348 71.6904C135.509 72.3724 132.798 73.5078 130.32 75.0528C127.711 76.6247 125.373 78.606 123.394 80.9208C119.251 85.6978 116.792 91.7032 116.395 98.0136C116.183 101.055 116.462 104.111 117.223 107.064C117.588 108.502 118.047 109.913 118.598 111.29C119.186 112.62 119.857 113.912 120.607 115.157C121.347 116.374 122.167 117.541 123.062 118.649C123.954 119.711 124.916 120.711 125.942 121.644C130.998 126.219 137.482 128.899 144.292 129.229C151.102 129.558 157.816 127.517 163.289 123.451C165.583 121.769 167.61 119.749 169.301 117.461C169.939 116.645 170.517 115.783 171.029 114.883C171.266 114.494 171.497 114.163 171.677 113.81L172.13 112.882L172.757 111.622C172.822 111.476 172.899 111.337 172.987 111.204C172.939 111.356 172.881 111.505 172.814 111.65C172.67 111.967 172.483 112.37 172.246 112.939L171.814 113.89C171.641 114.228 171.418 114.61 171.187 114.977C170.691 115.895 170.125 116.773 169.495 117.605C167.821 119.94 165.798 122.004 163.498 123.725C160.128 126.274 156.255 128.078 152.135 129.017C148.015 129.955 143.742 130.007 139.601 129.168C134.373 128.092 129.526 125.641 125.561 122.069C123.399 120.169 121.55 117.941 120.082 115.466C119.31 114.197 118.622 112.879 118.022 111.521C117.448 110.114 116.967 108.671 116.582 107.201C115.8 104.188 115.511 101.068 115.726 97.9632C116.134 91.5212 118.643 85.3906 122.868 80.5104C124.895 78.1508 127.287 76.1308 129.953 74.5272C131.248 73.743 132.595 73.0478 133.985 72.4464C135.371 71.8944 136.792 71.4373 138.24 71.0784C138.949 70.8775 139.67 70.7259 140.4 70.6248C141.12 70.5168 141.84 70.38 142.56 70.308C143.974 70.1776 145.396 70.144 146.815 70.2072C152.146 70.4398 157.318 72.0901 161.798 74.988C165.328 77.2976 168.327 80.3311 170.596 83.8873C172.865 87.4436 174.353 91.4415 174.96 95.616C175.4 98.4551 175.4 101.345 174.96 104.184C174.828 105.221 174.616 106.247 174.326 107.251C174.211 107.69 174.125 108.101 174.01 108.468L173.65 109.44L173.153 110.765C173.103 110.915 173.043 111.062 172.973 111.204Z"/><g opacity=".3"><path fill="#000" d="M172.642 111.406C172.476 111.341 172.85 110.088 173.275 107.806C173.873 104.615 173.975 101.351 173.578 98.1288C173.301 95.9179 172.779 93.7446 172.022 91.6488C171.154 89.27 169.98 87.0143 168.53 84.9384C166.942 82.6517 165.025 80.6115 162.842 78.8832C161.694 77.9715 160.475 77.1507 159.199 76.428C156.569 74.9309 153.715 73.8662 150.746 73.2744C149.308 72.9872 147.849 72.8115 146.383 72.7488C143.599 72.6326 140.812 72.9212 138.11 73.6056C135.655 74.2274 133.291 75.164 131.076 76.392C129.14 77.4771 127.329 78.7712 125.676 80.2512C123.259 82.4504 121.197 85.0103 119.563 87.84C118.397 89.8344 117.857 91.0296 117.691 90.9648C117.526 90.9 117.828 89.6184 118.793 87.4368C120.186 84.3455 122.139 81.5384 124.553 79.1568C128.182 75.5701 132.672 72.9766 137.592 71.6256C139.007 71.2286 140.452 70.9445 141.912 70.776C143.43 70.5829 144.962 70.5131 146.491 70.5672C148.075 70.6203 149.652 70.8009 151.207 71.1072C152.806 71.4286 154.378 71.8715 155.909 72.432C157.431 73.0089 158.907 73.7022 160.322 74.5056C161.698 75.292 163.007 76.1877 164.239 77.184C165.431 78.1409 166.544 79.1932 167.566 80.3304C168.55 81.4145 169.45 82.5723 170.258 83.7936C173.088 88.0155 174.782 92.8958 175.176 97.9632C175.455 101.358 175.104 104.776 174.139 108.043C173.426 110.297 172.8 111.449 172.642 111.406Z"/></g><g opacity=".3"><path fill="#000" d="M141.984 117.605L140.098 122.4L135.778 120.715L137.614 116.042C133.466 114.12 129.917 111.197 128.254 108.425L132.66 104.105C134.449 106.79 136.905 108.963 139.788 110.412L142.596 103.255C138.276 100.231 133.596 96.5592 136.001 90.432C137.786 85.8888 142.618 83.2824 149.681 85.1688L151.553 80.4096L155.837 82.0872L154.08 86.7816C157.082 88.1571 159.715 90.2249 161.762 92.8152L157.55 97.2432C155.99 95.2824 154.057 93.6501 151.862 92.4408L148.982 99.7272C153.302 102.708 157.91 106.351 155.542 112.392C153.806 116.849 149.04 119.434 141.984 117.605ZM145.13 96.9768L147.521 90.8856C145.044 90.5112 143.654 91.404 143.1 92.8152C142.546 94.2264 143.482 95.6376 145.13 96.9768ZM148.45 110.203C149.04 108.698 148.118 107.395 146.527 106.027L144.202 111.946C146.534 112.32 147.91 111.6 148.45 110.203Z"/></g><path fill="#FFBE9D" d="M46.4112 79.776L49.6152 111.6C50.1624 117.014 52.0704 124.848 60.5808 123.595C67.8888 121.954 69.0552 114.725 68.544 109.678C68.2992 107.28 68.0976 105.286 68.0904 105.041C68.0904 105.041 76.1112 103.457 75.888 95.3856C75.78 91.4832 74.9016 83.4624 74.0232 76.2192C73.5718 72.4638 71.722 69.0163 68.8425 66.5638C65.9629 64.1112 62.265 62.8336 58.4856 62.9856H57.708C49.3272 63.8424 45.36 71.424 46.4112 79.776Z"/><path fill="#EB996E" d="M68.0904 105.026C64.3621 105.163 60.6725 104.231 57.456 102.341C57.456 102.341 60.2568 108.101 68.256 107.078L68.0904 105.026Z"/><path fill="#263238" d="M60.7248 81.0288C60.588 81.2088 59.58 80.5752 58.2336 80.6904C56.8872 80.8056 55.9656 81.576 55.8 81.4104C55.6344 81.2448 55.8576 81.0288 56.2608 80.6904C56.8003 80.2273 57.4741 79.9497 58.1832 79.8984C58.8853 79.8351 59.5886 80.0047 60.1848 80.3808C60.6312 80.64 60.7968 80.9496 60.7248 81.0288Z"/><path fill="#263238" d="M60.9984 84.3624C61.0143 84.6462 60.9185 84.9249 60.7314 85.1389C60.5444 85.3528 60.281 85.4851 59.9976 85.5072C59.8593 85.5242 59.7189 85.5133 59.5848 85.4752C59.4508 85.437 59.3257 85.3725 59.217 85.2852C59.1083 85.198 59.0181 85.0899 58.9519 84.9672C58.8856 84.8446 58.8446 84.7099 58.8312 84.5712C58.8172 84.2867 58.9147 84.008 59.1029 83.7943C59.2911 83.5805 59.5553 83.4485 59.8392 83.4264C59.9772 83.4094 60.1171 83.4204 60.2508 83.4586C60.3844 83.4968 60.509 83.5615 60.6171 83.6488C60.7253 83.7361 60.8148 83.8443 60.8803 83.9669C60.9458 84.0895 60.9859 84.224 60.9984 84.3624Z"/><path fill="#263238" d="M65.1384 90C65.7849 89.7702 66.4571 89.6203 67.14 89.5536C67.4568 89.5104 67.752 89.4384 67.7952 89.2152C67.8096 88.887 67.7215 88.5624 67.5432 88.2864C67.2192 87.5664 66.8736 86.7456 66.5136 85.9104C65.0736 82.5336 64.0224 79.7472 64.1592 79.6896C64.296 79.632 65.5992 82.3248 67.0392 85.7088L68.0328 88.0992C68.2466 88.4743 68.3229 88.9122 68.2488 89.3376C68.2058 89.4503 68.1383 89.5521 68.0511 89.6356C67.964 89.719 67.8593 89.782 67.7448 89.82C67.5722 89.8748 67.393 89.9063 67.212 89.9136C66.5277 90.0345 65.8304 90.0635 65.1384 90Z"/><path fill="#263238" d="M59.5872 76.0608C59.4864 76.3704 58.392 76.2696 57.1104 76.4784C55.8288 76.6872 54.8136 77.0976 54.6336 76.824C54.5472 76.6944 54.72 76.3992 55.1232 76.104C55.665 75.7234 56.2893 75.4767 56.9448 75.384C57.5985 75.2795 58.2677 75.3338 58.896 75.5424C59.3784 75.6792 59.6232 75.9096 59.5872 76.0608Z"/><path fill="#263238" d="M72.5904 77.0976C72.4752 77.3568 71.4024 77.2056 70.128 77.3136C68.8536 77.4216 67.824 77.6952 67.6656 77.4576C67.5936 77.3424 67.7736 77.1048 68.1912 76.86C68.7673 76.5645 69.3969 76.388 70.0426 76.341C70.6883 76.294 71.3368 76.3775 71.9496 76.5864C72.4104 76.7664 72.6408 76.9752 72.5904 77.0976Z"/><path fill="#FFBE9D" d="M47.304 85.7232C47.1672 85.6656 41.6952 84.2832 42.0912 89.8128C42.4872 95.3424 47.9376 93.7872 47.9376 93.6288C47.9376 93.4704 47.304 85.7232 47.304 85.7232Z"/><path fill="#EB996E" d="M46.08 91.6632C46.08 91.6632 45.9936 91.7424 45.8352 91.8288C45.6119 91.94 45.3549 91.9632 45.1152 91.8936C44.5176 91.7208 43.9632 90.828 43.8624 89.8416C43.8141 89.3689 43.8731 88.8914 44.0352 88.4448C44.0749 88.2695 44.1566 88.1065 44.2732 87.9698C44.3898 87.8331 44.538 87.7267 44.7048 87.66C44.8127 87.622 44.9306 87.6236 45.0374 87.6645C45.1442 87.7054 45.2331 87.7829 45.288 87.8832C45.3744 88.0272 45.3456 88.1424 45.3744 88.1496C45.4032 88.1568 45.4896 88.0488 45.4248 87.8256C45.3875 87.6905 45.3032 87.5731 45.1872 87.4944C45.0276 87.3907 44.8335 87.3545 44.6472 87.3936C44.4242 87.4534 44.2203 87.5696 44.0551 87.731C43.8899 87.8924 43.769 88.0936 43.704 88.3152C43.5031 88.8099 43.4265 89.3464 43.4808 89.8776C43.596 90.9864 44.244 91.9872 45.0576 92.16C45.2082 92.1904 45.3635 92.1875 45.5128 92.1514C45.6621 92.1153 45.8016 92.047 45.9216 91.9512C46.08 91.8 46.1232 91.6776 46.08 91.6632Z"/><path fill="#263238" d="M64.2744 93.9168C64.3176 93.7728 63.2088 93.5712 62.3376 92.6496C61.9737 92.2423 61.664 91.7898 61.416 91.3032C61.2144 90.9216 61.0632 90.684 61.0056 90.7128C60.948 90.7416 61.0056 91.0008 61.1352 91.4328C61.3154 92.0002 61.6177 92.5212 62.0208 92.9592C62.4345 93.3967 62.9598 93.7129 63.54 93.8736C63.9792 93.9888 64.2672 93.9672 64.2744 93.9168Z"/><path fill="#263238" d="M73.0008 80.1504C72.8568 80.3304 71.8488 79.6896 70.5024 79.812C69.156 79.9344 68.2344 80.6976 68.076 80.532C67.9176 80.3664 68.1264 80.1504 68.5296 79.812C69.0754 79.3547 69.7496 79.078 70.4592 79.02C71.1609 78.9615 71.8628 79.1307 72.4608 79.5024C72.9 79.7832 73.0656 80.0712 73.0008 80.1504Z"/><path fill="#263238" d="M72.2952 83.6856C72.3092 83.9701 72.2117 84.2488 72.0235 84.4625C71.8353 84.6763 71.5712 84.8083 71.2872 84.8304C71.1489 84.8463 71.0087 84.8344 70.8751 84.7954C70.7414 84.7563 70.6169 84.6909 70.5089 84.603C70.4008 84.5152 70.3115 84.4065 70.2461 84.2836C70.1807 84.1607 70.1405 84.0259 70.128 83.8872C70.114 83.6046 70.2107 83.3277 70.3976 83.1153C70.5845 82.9029 70.8468 82.7717 71.1288 82.7496C71.2673 82.7316 71.408 82.7417 71.5425 82.7795C71.677 82.8172 71.8025 82.8817 71.9114 82.9691C72.0203 83.0565 72.1105 83.165 72.1764 83.2882C72.2424 83.4113 72.2828 83.5465 72.2952 83.6856Z"/><path fill="#263238" d="M78.4008 64.9512C77.7601 64.1207 76.8391 63.5517 75.8097 63.3503C74.7803 63.1489 73.7128 63.329 72.8064 63.8568C72.9177 62.5537 72.5974 61.2502 71.8949 60.1471C71.1924 59.044 70.1466 58.2025 68.9187 57.7522C67.6908 57.302 66.349 57.2681 65.0999 57.6556C63.8508 58.0431 62.7638 58.8306 62.0064 59.8968C61.8973 59.5654 61.7189 59.2611 61.483 59.0041C61.2471 58.7472 60.9592 58.5434 60.6384 58.4064C59.9937 58.1386 59.2982 58.0157 58.6008 58.0464C56.9444 58.0494 55.3178 58.4872 53.8837 59.3161C52.4496 60.145 51.2583 61.3358 50.4288 62.7696C48.8135 62.769 47.2207 63.1479 45.7787 63.8757C44.3368 64.6036 43.086 65.6601 42.1272 66.96C39.8736 70.1064 40.1328 76.7736 43.6032 82.1736L44.676 85.68C45.4541 85.4903 46.2749 85.5954 46.98 85.9752C47.7936 86.5584 48.2688 87.7752 49.4496 87.156C50.0472 86.8464 50.472 85.464 50.6088 84.8016C51.5165 80.3878 51.465 75.8305 50.4576 71.4384C51.2409 70.3963 52.219 69.516 53.3376 68.8464L53.2584 68.9472C55.4184 67.9176 57.8448 66.8664 60.084 67.6728C61.8192 68.2992 62.964 69.8976 64.368 71.1216C65.6458 72.2504 67.1391 73.1086 68.7577 73.6444C70.3763 74.1802 72.0866 74.3826 73.7856 74.2392C74.16 76.4784 74.3328 79.6824 74.7 81.9216L76.1904 78.0984C76.3106 77.8233 76.4163 77.5421 76.5072 77.256L76.5432 77.1696C76.913 76.652 77.2567 76.1161 77.5728 75.564C78.0553 74.8414 78.3312 74.0007 78.3705 73.1327C78.4099 72.2647 78.2112 71.4025 77.796 70.6392C78.573 69.9279 79.0633 68.9571 79.1746 67.9096C79.286 66.8621 79.0108 65.81 78.4008 64.9512Z"/><path fill="#263238" d="M77.0184 75.8088L77.0112 75.8016L77.0184 75.8088Z"/><path fill="#455A64" d="M75.132 65.4048C75.132 65.4048 75.132 65.4048 75.1824 65.52C75.2272 65.6311 75.2586 65.7471 75.276 65.8656C75.3459 66.3146 75.2859 66.7743 75.1032 67.1904C74.9781 67.4819 74.7971 67.7461 74.5704 67.968C74.3038 68.2247 73.977 68.4104 73.62 68.508C73.2049 68.6214 72.7675 68.626 72.3501 68.5214C71.9327 68.4167 71.5493 68.2063 71.2368 67.9104L71.3592 67.7736C71.654 68.0387 71.8346 68.4077 71.8632 68.8032C71.9065 69.3241 71.7437 69.8412 71.4096 70.2432C71.0885 70.6144 70.6527 70.8678 70.1712 70.9632C69.38 71.1142 68.561 70.987 67.8528 70.6032C67.3807 70.3536 66.9366 70.0543 66.528 69.7104C66.3729 69.5937 66.2283 69.4636 66.096 69.3216C66.096 69.3216 66.2688 69.4368 66.5712 69.6528C66.9882 69.9701 67.4341 70.2473 67.9032 70.4808C68.5891 70.8384 69.3769 70.9502 70.1352 70.7976C70.5739 70.7087 70.9726 70.4816 71.2728 70.1496C71.5778 69.7816 71.7253 69.3081 71.6832 68.832C71.6582 68.4809 71.4983 68.1532 71.2368 67.9176L71.3664 67.788C71.6542 68.0661 72.0088 68.2652 72.396 68.3661C72.7832 68.467 73.1899 68.4663 73.5768 68.364C73.8932 68.2832 74.1871 68.1317 74.4366 67.921C74.686 67.7102 74.8844 67.4457 75.0168 67.1472C75.1985 66.7535 75.273 66.3189 75.2328 65.8872C75.1824 65.5704 75.1176 65.412 75.132 65.4048Z"/><path fill="#455A64" d="M67.5864 60.1704C67.6288 60.1799 67.6698 60.1944 67.7088 60.2136C67.8247 60.2599 67.9357 60.3178 68.04 60.3864C68.4375 60.6234 68.7654 60.9612 68.9904 61.3656C69.1563 61.6706 69.2461 62.0112 69.2524 62.3584C69.2587 62.7056 69.1812 63.0491 69.0264 63.36C68.8357 63.7368 68.5048 64.0237 68.1048 64.1592C67.8924 64.2352 67.6667 64.2673 67.4415 64.2537C67.2163 64.2401 66.9962 64.181 66.7944 64.08C66.6696 64.0075 66.5557 63.9179 66.456 63.8136L66.6072 63.7056C66.707 63.8945 66.7669 64.102 66.783 64.315C66.7991 64.5281 66.7711 64.7422 66.7008 64.944C66.5772 65.3229 66.3217 65.6448 65.9808 65.8512C65.7034 66.0184 65.3931 66.1236 65.0713 66.1596C64.7494 66.1957 64.4235 66.1617 64.116 66.06C63.7089 65.925 63.3357 65.704 63.0216 65.412C62.9015 65.3131 62.7971 65.1966 62.712 65.0664C62.712 65.0664 62.8344 65.1816 63.0648 65.3616C63.3855 65.6237 63.755 65.8195 64.152 65.9376C64.4419 66.0245 64.7468 66.0496 65.0469 66.0111C65.3471 65.9727 65.6358 65.8716 65.8944 65.7144C66.1919 65.5183 66.413 65.226 66.5208 64.8864C66.5817 64.7089 66.6055 64.5208 66.5906 64.3338C66.5758 64.1468 66.5226 63.9648 66.4344 63.7992L66.0672 63.1584L66.5784 63.6912C66.6657 63.7813 66.765 63.8588 66.8736 63.9216C67.0511 64.0129 67.2449 64.0682 67.4439 64.0843C67.6428 64.1004 67.843 64.0769 68.0328 64.0152C68.3911 63.8905 68.6876 63.6327 68.8608 63.2952C69.0103 63.0084 69.0884 62.6898 69.0884 62.3664C69.0884 62.043 69.0103 61.7243 68.8608 61.4376C68.6539 61.0558 68.3605 60.7279 68.004 60.48C67.7448 60.2568 67.5792 60.1848 67.5864 60.1704Z"/><path fill="#455A64" d="M85.4496 312.106L84.8736 339.466L120.874 340.308C120.744 337.054 102.305 330.098 102.305 330.098L103.435 312.595L85.4496 312.106Z"/><g opacity=".6"><path fill="#fff" d="M91.2024 328.32C90.8631 328.399 90.566 328.603 90.37 328.891C90.174 329.179 90.0933 329.53 90.144 329.875C90.2446 330.213 90.4659 330.503 90.7659 330.689C91.0658 330.874 91.4236 330.944 91.7712 330.883C92.1352 330.805 92.4548 330.589 92.6629 330.28C92.8709 329.971 92.9513 329.594 92.8872 329.227C92.7469 328.881 92.4823 328.6 92.1453 328.438C91.8083 328.277 91.4232 328.248 91.0656 328.356"/></g><g opacity=".6"><path fill="#fff" d="M84.8736 339.444L85.0464 336.686L119.52 338.53C119.52 338.53 121.104 339.25 120.895 340.286L84.8736 339.444Z"/></g><path fill="#263238" d="M102.881 329.918C102.881 330.084 101.988 330.134 101.11 330.638C100.231 331.142 99.7488 331.834 99.5904 331.769C99.432 331.704 99.72 330.746 100.793 330.142C101.866 329.537 102.917 329.76 102.881 329.918Z"/><path fill="#263238" d="M106.61 331.481C106.646 331.639 105.89 331.906 105.264 332.597C104.638 333.288 104.458 334.037 104.285 334.037C104.112 334.037 104.018 333.086 104.803 332.244C105.588 331.402 106.61 331.322 106.61 331.481Z"/><path fill="#263238" d="M108.641 335.801C108.482 335.801 108.259 334.994 108.734 334.094C109.21 333.194 110.045 332.856 110.11 332.993C110.174 333.13 109.663 333.612 109.282 334.354C108.9 335.095 108.821 335.786 108.641 335.801Z"/><path fill="#263238" d="M102.665 325.901C102.593 326.052 101.786 325.8 100.793 325.843C99.7992 325.886 99.0144 326.16 98.928 326.016C98.8416 325.872 99.6048 325.296 100.771 325.296C101.938 325.296 102.758 325.771 102.665 325.901Z"/><path fill="#263238" d="M101.916 321.84C101.321 321.973 100.703 321.955 100.116 321.79C99.0965 321.583 98.1216 321.198 97.236 320.652C97.0389 320.543 96.8593 320.404 96.7032 320.242C96.5961 320.122 96.5322 319.969 96.5218 319.809C96.5113 319.648 96.5549 319.489 96.6456 319.356C96.7391 319.24 96.8576 319.147 96.9923 319.083C97.127 319.02 97.2743 318.987 97.4232 318.989C97.6526 318.994 97.8803 319.031 98.1 319.097C98.48 319.195 98.8509 319.325 99.2088 319.486C99.8076 319.753 100.359 320.116 100.843 320.558C101.664 321.278 101.93 321.934 101.866 321.962C101.801 321.991 101.398 321.487 100.562 320.861C100.072 320.501 99.54 320.202 98.9784 319.968C98.6324 319.849 98.2788 319.752 97.92 319.68C97.5456 319.579 97.2 319.565 97.1136 319.723C97.0272 319.882 97.0704 319.81 97.1136 319.918C97.2306 320.037 97.3639 320.139 97.5096 320.22C97.8105 320.416 98.1231 320.594 98.4456 320.753C99.0007 321.028 99.5789 321.255 100.174 321.43C100.764 321.523 101.346 321.66 101.916 321.84Z"/><path fill="#263238" d="M101.678 322.078C101.355 321.589 101.203 321.006 101.246 320.422C101.235 319.79 101.335 319.161 101.542 318.564C101.669 318.207 101.833 317.865 102.031 317.542C102.136 317.312 102.3 317.113 102.506 316.967C102.712 316.82 102.953 316.73 103.205 316.706C103.358 316.717 103.506 316.769 103.633 316.856C103.76 316.943 103.86 317.063 103.925 317.203C104.01 317.403 104.066 317.614 104.09 317.83C104.151 318.209 104.151 318.595 104.09 318.974C103.972 319.615 103.692 320.215 103.277 320.717C102.557 321.581 101.837 321.761 101.794 321.703C101.75 321.646 102.362 321.314 102.924 320.479C103.244 320.003 103.453 319.462 103.536 318.895C103.583 318.568 103.583 318.236 103.536 317.909C103.486 317.549 103.349 317.254 103.205 317.282C103.061 317.311 102.715 317.542 102.564 317.83C102.376 318.118 102.217 318.424 102.089 318.744C101.877 319.286 101.744 319.856 101.693 320.436C101.606 321.43 101.779 322.056 101.678 322.078Z"/><path fill="#455A64" d="M51.7536 300.866L37.044 320.213L62.46 339.653C64.08 337.234 54.4608 322.56 54.4608 322.56L64.4184 310.579L51.7536 300.866Z"/><g opacity=".6"><path fill="#fff" d="M47.3976 315.54C47.1116 315.418 46.79 315.409 46.4975 315.515C46.205 315.62 45.9633 315.832 45.8208 316.109C45.712 316.404 45.7183 316.729 45.8383 317.02C45.9584 317.311 46.1835 317.546 46.4688 317.678C46.7711 317.807 47.111 317.816 47.4197 317.704C47.7285 317.592 47.9831 317.366 48.132 317.074C48.2118 316.752 48.1689 316.413 48.0118 316.121C47.8548 315.83 47.5947 315.607 47.2824 315.497"/></g><g opacity=".6"><path fill="#fff" d="M37.044 320.213L38.6064 318.319L62.3664 337.651C62.3664 337.651 63.1368 338.983 62.4312 339.638L37.044 320.213Z"/></g><path fill="#263238" d="M54.9648 322.776C54.8712 322.891 54.2448 322.474 53.3088 322.38C52.3728 322.286 51.7032 322.531 51.624 322.38C51.5448 322.229 52.2504 321.71 53.3448 321.84C54.4392 321.97 55.0728 322.69 54.9648 322.776Z"/><path fill="#263238" d="M56.8296 325.858C56.772 325.987 56.1096 325.778 55.2816 325.951C54.4536 326.124 53.9496 326.556 53.8416 326.455C53.7336 326.354 54.1512 325.634 55.152 325.44C56.1528 325.246 56.916 325.742 56.8296 325.858Z"/><path fill="#263238" d="M56.0304 330.019C55.9008 329.962 56.1744 329.242 56.988 328.846C57.8016 328.45 58.5792 328.637 58.5504 328.774C58.5216 328.91 57.9096 328.982 57.2472 329.314C56.5848 329.645 56.16 330.106 56.0304 330.019Z"/><path fill="#263238" d="M56.88 319.781C56.7504 319.846 56.304 319.255 55.5696 318.758C54.8352 318.262 54.1296 318.038 54.1296 317.909C54.1296 317.779 54.9864 317.743 55.8504 318.334C56.7144 318.924 57.0456 319.738 56.88 319.781Z"/><path fill="#263238" d="M58.4928 316.476C58.4928 316.526 57.9096 316.224 57.2256 315.497C56.8185 315.071 56.461 314.6 56.16 314.093C55.9926 313.795 55.8435 313.487 55.7136 313.171C55.6265 312.989 55.5682 312.795 55.5408 312.595C55.5235 312.452 55.5563 312.307 55.6337 312.185C55.7112 312.063 55.8284 311.971 55.9656 311.926C56.0894 311.897 56.218 311.895 56.3423 311.921C56.4667 311.948 56.5839 312.001 56.6856 312.077C56.8485 312.198 56.9938 312.341 57.1176 312.502C57.3401 312.769 57.5377 313.055 57.708 313.358C57.9975 313.865 58.2064 314.414 58.3272 314.986C58.4882 315.489 58.4882 316.03 58.3272 316.534C58.2408 316.534 58.2336 315.943 57.96 315.058C57.7953 314.552 57.5705 314.069 57.2904 313.618C57.1191 313.348 56.929 313.09 56.7216 312.847C56.5056 312.574 56.2752 312.394 56.1168 312.458C55.9584 312.523 56.0448 312.494 56.0448 312.61C56.0678 312.756 56.1089 312.898 56.1672 313.034C56.4817 313.847 56.9135 314.608 57.4488 315.295C58.0896 316.015 58.5432 316.411 58.4928 316.476Z"/><path fill="#263238" d="M58.2048 316.519C58.1472 316.519 58.2048 315.893 58.7592 315.079C59.0811 314.626 59.4809 314.233 59.94 313.92C60.2188 313.731 60.5154 313.569 60.8256 313.438C61.0222 313.33 61.2425 313.274 61.4664 313.274C61.6903 313.274 61.9106 313.33 62.1072 313.438C62.2163 313.519 62.3 313.63 62.3484 313.758C62.3968 313.885 62.4081 314.024 62.3808 314.158C62.3395 314.347 62.2691 314.529 62.172 314.698C61.9533 315.103 61.6518 315.458 61.2872 315.74C60.9225 316.021 60.5028 316.223 60.0552 316.332C59.5397 316.519 58.9718 316.498 58.4712 316.274C58.9564 316.203 59.4371 316.105 59.9112 315.979C60.3949 315.819 60.8357 315.551 61.2 315.194C61.4064 314.982 61.5788 314.739 61.7112 314.474C61.8624 314.194 61.92 313.906 61.8048 313.855C61.6873 313.815 61.5627 313.799 61.4388 313.809C61.315 313.819 61.1945 313.854 61.0848 313.913C60.7989 314.023 60.524 314.161 60.264 314.323C59.8045 314.603 59.3915 314.953 59.04 315.36C58.4856 316.015 58.32 316.555 58.2048 316.519Z"/><path fill="#263238" d="M56.0376 192.838L60.408 207.065C61.5267 210.715 63.5301 214.031 66.24 216.72C69.0624 219.506 72.3816 222.811 72.9216 223.466L86.1984 266.551L83.1312 324L106.013 325.555C106.013 325.555 115.013 266.89 113.558 257.81C112.104 248.731 102.874 188.186 102.874 188.186L100.447 183.974L56.0376 192.838Z"/><path fill="#263238" d="M75.096 225.022L72.7776 267.35L42.3432 308.714L61.4232 321.725L102.47 273.794L102.874 218.347L75.096 225.022Z"/><path fill="#455A64" d="M72.9432 223.481C72.9432 223.481 72.9432 223.546 73.0296 223.675C73.116 223.805 73.152 224.028 73.2384 224.273C73.4328 224.82 73.692 225.598 74.0304 226.577C74.7504 228.622 75.6864 231.545 76.9104 235.174L86.436 264.24V264.276V264.312C86.3136 266.789 86.1768 269.352 86.04 272.016C85.32 285.977 84.6 298.613 84.1176 307.786C83.8512 312.343 83.6424 316.037 83.4912 318.629C83.4048 319.882 83.34 320.868 83.2968 321.574C83.2968 321.89 83.2536 322.142 83.2392 322.337C83.2335 322.424 83.2214 322.511 83.2032 322.596C83.1905 322.51 83.1905 322.423 83.2032 322.337C83.2032 322.142 83.2032 321.883 83.2032 321.566C83.2032 320.846 83.268 319.874 83.3184 318.614C83.4408 316.03 83.6064 312.329 83.8152 307.771C84.276 298.591 84.9168 285.955 85.6152 271.994C85.752 269.352 85.8888 266.767 86.0184 264.29V264.37C82.2744 252.799 78.9768 242.59 76.608 235.246C75.4488 231.602 74.5128 228.672 73.8576 226.606C73.5552 225.612 73.3104 224.827 73.1376 224.273L72.9648 223.668C72.9494 223.607 72.9422 223.544 72.9432 223.481Z"/><path fill="#455A64" d="M48.708 108.468C48.708 108.468 41.1912 120.24 42.6456 130.003C43.38 134.95 56.16 185.04 56.16 185.04L56.016 202.262L105.034 192.139L100.102 174.672L85.5432 123.149L68.4 108.72L48.708 108.468Z"/><g opacity=".3"><path fill="#000" d="M54.1368 133.726C54.1368 133.726 77.8968 150.667 86.2416 150.458L93.3408 150.66L92.2464 146.808L54.1368 133.726Z"/></g><path fill="#263238" d="M59.112 136.303C58.5441 136.775 57.926 137.183 57.2688 137.52C54.1606 139.279 50.7844 140.514 47.2752 141.178C46.5676 141.347 45.8428 141.434 45.1152 141.437C45.8244 141.222 46.5457 141.049 47.2752 140.918C48.9827 140.511 50.6654 140.006 52.3152 139.406C53.9717 138.783 55.5897 138.061 57.1608 137.246C57.7924 136.894 58.4439 136.58 59.112 136.303Z"/><path fill="#263238" d="M94.5072 156.6C94.5072 156.701 85.0608 159.214 73.3536 162.209C61.6464 165.204 52.1208 167.551 52.0992 167.45C52.0776 167.35 61.5456 164.844 73.26 161.849C84.9744 158.854 94.4856 156.506 94.5072 156.6Z"/><path fill="#263238" d="M101.167 179.806C101.02 179.855 100.868 179.891 100.714 179.914L99.4032 180.158C98.2728 180.382 96.6312 180.706 94.6152 181.159C90.576 182.052 85.0392 183.47 78.9336 185.076C72.828 186.682 67.2984 188.158 63.2736 189.122C61.2648 189.612 59.6304 189.979 58.4928 190.217L57.1896 190.469C57.0353 190.501 56.8789 190.523 56.7216 190.534C56.8638 190.469 57.0139 190.423 57.168 190.397L58.464 190.073L63.2088 188.863L78.84 184.716C84.9456 183.11 90.4968 181.728 94.5576 180.9C96.5808 180.482 98.2368 180.18 99.3816 180.014L100.699 179.842C100.853 179.812 101.01 179.8 101.167 179.806Z"/><path fill="#FFBE9D" d="M137.405 115.092C137.6 113.662 138.109 112.292 138.895 111.082C140.227 108.972 143.813 106.567 143.87 104.918C143.928 103.27 145.786 103.975 146.03 105.948C146.167 107.208 144.655 111.06 144.655 111.06C144.655 111.06 147.744 110.916 149.328 109.231C150.912 107.546 157.01 103.558 158.004 104.278C159.134 105.091 157.486 105.977 156.866 106.632C156.391 107.129 152.604 110.671 152.604 110.671C152.604 110.671 161.374 107.705 162.612 107.791C163.966 107.885 163.044 109.332 162.497 109.519C162.144 109.642 163.591 110.239 162.814 111.557C162.288 112.457 158.897 114.35 157.903 114.66L155.851 115.315L162.331 114.084C162.331 114.084 163.714 114.746 162.331 115.718C161.726 116.15 143.611 124.589 142.171 125.122C139.68 126.036 136.073 127.21 136.073 127.21L132.847 116.676L137.405 115.092Z"/><path fill="#EB996E" d="M162.461 109.519C160.887 110.625 159.212 111.577 157.457 112.363C154.613 113.803 152.179 114.667 152.136 114.523C152.605 114.212 153.104 113.949 153.626 113.738L157.27 111.967L160.913 110.167C161.402 109.892 161.921 109.674 162.461 109.519Z"/><path fill="#455A64" d="M48.96 130.781C48.96 130.781 81.0072 150.156 95.9328 146.304C110.858 142.452 140.89 128.88 140.89 128.88L133.92 112.658L93.9456 127.058C93.9456 127.058 65.3256 113.681 59.184 111.802C50.1768 109.03 37.908 120.96 48.96 130.781Z"/><path fill="#263238" d="M70.5096 116.381L70.9344 116.525C71.208 116.633 71.6544 116.777 72.1656 117C73.2456 117.425 74.8296 118.102 76.8672 118.987C80.928 120.78 86.7888 123.466 94.0392 126.907H93.9312L133.884 112.507L134.064 112.442L134.136 112.615L141.12 128.794L141.199 128.981L141.012 129.067L135.194 131.63C129.355 134.179 123.61 136.577 118.03 138.83C112.45 141.084 107.021 143.1 101.758 144.806C100.44 145.21 99.1512 145.649 97.8408 145.994L95.904 146.527C95.2563 146.681 94.5999 146.797 93.9384 146.873C91.3937 147.112 88.828 147.001 86.3136 146.542C81.8245 145.711 77.4264 144.447 73.1808 142.769C67.0319 140.378 61.0435 137.593 55.2528 134.431C53.2008 133.315 51.6528 132.415 50.5656 131.796L49.3704 131.076C49.0968 130.91 48.9672 130.817 48.9672 130.817C48.9672 130.817 49.1184 130.889 49.392 131.04L50.6088 131.76C51.6816 132.365 53.2656 133.243 55.332 134.33C61.146 137.427 67.1426 140.168 73.2888 142.538C77.5132 144.156 81.8816 145.368 86.3352 146.16C88.8179 146.601 91.3491 146.703 93.8592 146.462C94.4978 146.396 95.1323 146.295 95.76 146.16L97.6824 145.627C98.9784 145.282 100.267 144.835 101.585 144.432C106.826 142.726 112.241 140.659 117.821 138.442C123.401 136.224 129.132 133.812 134.971 131.242L140.782 128.678L140.681 128.952L133.747 112.73L133.999 112.846L94.0032 127.166H93.9456H93.8952C86.6952 123.689 80.82 120.96 76.7808 119.124C74.7576 118.217 73.1808 117.518 72.1152 117.065L70.8984 116.561C70.6464 116.453 70.5096 116.381 70.5096 116.381Z"/><path fill="#263238" d="M64.8 114.602C64.487 114.505 64.1834 114.38 63.8928 114.228C63.3168 113.976 62.4528 113.602 61.4376 113.213C60.2158 112.746 58.9454 112.418 57.6504 112.234C56.074 112.006 54.4665 112.139 52.9488 112.622C51.402 113.096 50.0504 114.059 49.0968 115.366C47.891 116.691 46.9609 118.242 46.3608 119.93C45.9288 121.176 45.8136 121.946 45.7632 121.939C45.7587 121.753 45.7756 121.567 45.8136 121.385C45.8929 120.87 46.0108 120.362 46.1664 119.866C46.7076 118.114 47.6213 116.5 48.8448 115.135C49.8275 113.759 51.2375 112.747 52.8552 112.255C54.4269 111.756 56.0929 111.628 57.7224 111.881C59.0407 112.084 60.3294 112.446 61.56 112.961C62.3888 113.293 63.1989 113.67 63.9864 114.091C64.2745 114.233 64.5472 114.404 64.8 114.602Z"/><path fill="#263238" d="M78.3576 120.42C78.3096 120.709 78.2224 120.99 78.0984 121.255C77.9112 121.781 77.616 122.537 77.2416 123.466C76.5216 125.323 75.4056 127.865 74.1024 130.666C72.7992 133.466 71.5464 135.893 70.596 137.657C70.1208 138.542 69.7248 139.248 69.4368 139.73C69.3088 139.987 69.1518 140.229 68.9688 140.45C69.0502 140.172 69.1638 139.904 69.3072 139.651C69.5952 139.082 69.9408 138.37 70.3584 137.527C71.2512 135.742 72.468 133.258 73.764 130.5C75.06 127.742 76.1904 125.215 76.9968 123.394L77.9616 121.234C78.0664 120.95 78.199 120.677 78.3576 120.42Z"/><path fill="#263238" d="M96.5952 145.649C96.4872 145.649 95.8248 141.646 95.112 136.685C94.3992 131.724 93.9024 127.685 94.0032 127.663C94.104 127.642 94.7664 131.666 95.4864 136.627C96.2064 141.588 96.696 145.634 96.5952 145.649Z"/><path fill="#263238" d="M121.615 137.138C121.454 136.951 121.323 136.74 121.226 136.512C120.996 136.094 120.679 135.49 120.298 134.734C119.52 133.229 118.483 131.134 117.353 128.822C116.222 126.511 115.193 124.394 114.473 122.854C114.12 122.09 113.839 121.464 113.652 121.032C113.535 120.804 113.448 120.562 113.393 120.312C113.549 120.503 113.679 120.714 113.782 120.938C114.012 121.356 114.329 121.961 114.71 122.717C115.481 124.222 116.525 126.317 117.655 128.635C118.786 130.954 119.815 133.063 120.499 134.604C120.852 135.367 121.133 135.994 121.32 136.426C121.447 136.65 121.546 136.89 121.615 137.138Z"/><path fill="#F7C8E0" d="M120.881 297.367L140.321 340.286H149.702L151.042 337.01L152.712 340.286H158.868L158.148 315.238L157.846 300.434L120.881 297.367Z"/><path fill="#000" d="M120.881 297.367L140.321 340.286H149.702L151.042 337.01L152.712 340.286H158.868L158.148 315.238L157.846 300.434L120.881 297.367Z" opacity=".3"/><path fill="#F7C8E0" d="M205.949 301.968L224.906 340.286H234.288L235.634 337.291L237.298 340.286H243.454L242.741 317.354L242.431 303.804L205.949 301.968Z"/><path fill="#000" d="M205.949 301.968L224.906 340.286H234.288L235.634 337.291L237.298 340.286H243.454L242.741 317.354L242.431 303.804L205.949 301.968Z" opacity=".3"/><path fill="#F7C8E0" d="M313.769 189.036L313.949 189.094L314.453 189.317C315.086 189.632 315.676 190.026 316.21 190.49C317.203 191.346 318.017 192.391 318.603 193.564C319.188 194.737 319.535 196.015 319.622 197.323C319.734 199.149 319.274 200.963 318.305 202.514C317.199 204.302 315.563 205.699 313.625 206.51C312.564 206.982 311.416 207.226 310.255 207.226C309.094 207.226 307.946 206.982 306.886 206.51C305.746 205.975 304.851 205.029 304.38 203.861C304.122 203.263 304.019 202.611 304.079 201.963C304.139 201.315 304.362 200.692 304.726 200.153C305.114 199.635 305.611 199.208 306.182 198.903C306.753 198.599 307.384 198.423 308.03 198.389C309.285 198.34 310.515 198.746 311.494 199.534C312.401 200.266 313.124 201.2 313.607 202.261C314.089 203.322 314.317 204.481 314.273 205.646C314.208 207.752 313.449 209.777 312.113 211.406C311.519 212.145 310.812 212.784 310.018 213.3C309.276 213.754 308.48 214.112 307.649 214.366C306.211 214.78 304.704 214.892 303.221 214.697C302.107 214.557 301.018 214.259 299.988 213.811C299.34 213.528 298.72 213.183 298.138 212.782L297.698 212.45C297.605 212.378 297.554 212.335 297.562 212.328C298.344 212.856 299.176 213.307 300.046 213.674C301.067 214.096 302.144 214.37 303.242 214.488C304.693 214.657 306.163 214.529 307.562 214.114C308.368 213.86 309.137 213.504 309.852 213.055C310.616 212.553 311.295 211.93 311.861 211.212C313.143 209.63 313.867 207.668 313.92 205.632C313.961 204.523 313.743 203.42 313.281 202.411C312.82 201.402 312.129 200.515 311.263 199.822C310.356 199.087 309.211 198.708 308.045 198.756C307.454 198.788 306.878 198.949 306.356 199.226C305.834 199.503 305.378 199.891 305.021 200.362C304.696 200.852 304.498 201.415 304.445 202.001C304.392 202.587 304.486 203.176 304.718 203.717C305.155 204.798 305.982 205.675 307.037 206.172C308.057 206.625 309.161 206.859 310.277 206.859C311.393 206.859 312.497 206.625 313.517 206.172C315.394 205.394 316.983 204.05 318.06 202.327C319.018 200.827 319.479 199.064 319.378 197.287C319.301 195.829 318.892 194.408 318.182 193.133C317.65 192.163 316.959 191.289 316.138 190.548C315.418 189.942 314.621 189.434 313.769 189.036Z"/><path fill="#F7C8E0" d="M304.488 227.866C307.31 291.55 253.922 323.323 193.486 323.323C133.049 323.323 84.0456 281.945 84.0456 230.904C84.0456 179.863 133.042 138.485 193.486 138.485C253.93 138.485 302.227 176.875 304.488 227.866Z"/><path fill="#000" d="M185.861 161.28C185.861 161.28 193.118 158.976 199.908 166.651C206.698 174.326 216.144 187.402 216.144 187.402C215.294 191.657 212.81 194.976 207.994 196.949L185.861 161.28Z" opacity=".3"/><path fill="#F7C8E0" d="M121.536 297.115C142.229 297.115 159.005 284.26 159.005 268.402C159.005 252.544 142.229 239.688 121.536 239.688C100.843 239.688 84.0672 252.544 84.0672 268.402C84.0672 284.26 100.843 297.115 121.536 297.115Z"/><path fill="#F7C8E0" d="M156.478 191.642C156.478 191.642 178.438 157.572 188.496 161.266C198.554 164.959 207.994 196.978 207.994 196.978"/><path fill="#F7C8E0" d="M131.645 183.83L130.622 174.607C130.622 174.607 116.87 168.847 104.558 166.046C92.2464 163.246 89.82 166.046 89.82 166.046L109.296 193.342L131.645 183.83Z"/><path fill="#000" d="M160.956 151.157L168.242 155.477C168.242 155.477 203.522 146.117 230.638 155.477L220.694 147.01C220.694 147.01 187.826 139.954 160.956 151.157Z" opacity=".3"/><path fill="#000" d="M121.536 297.115C142.229 297.115 159.005 284.26 159.005 268.402C159.005 252.544 142.229 239.688 121.536 239.688C100.843 239.688 84.0672 252.544 84.0672 268.402C84.0672 284.26 100.843 297.115 121.536 297.115Z" opacity=".3"/><path fill="#F7C8E0" d="M112.01 297.115C131.396 297.115 147.11 284.26 147.11 268.402C147.11 252.544 131.396 239.688 112.01 239.688C92.6252 239.688 76.9104 252.544 76.9104 268.402C76.9104 284.26 92.6252 297.115 112.01 297.115Z"/><path fill="#000" d="M99.8784 254.938H97.1784C95.8503 254.938 94.7736 256.014 94.7736 257.342V279.475C94.7736 280.803 95.8503 281.88 97.1784 281.88H99.8784C101.207 281.88 102.283 280.803 102.283 279.475V257.342C102.283 256.014 101.207 254.938 99.8784 254.938Z" opacity=".3"/><path fill="#000" d="M120.046 254.938H117.346C116.017 254.938 114.941 256.014 114.941 257.342V279.475C114.941 280.803 116.017 281.88 117.346 281.88H120.046C121.374 281.88 122.45 280.803 122.45 279.475V257.342C122.45 256.014 121.374 254.938 120.046 254.938Z" opacity=".3"/><path fill="#000" d="M129.514 184.738C132.674 182.952 134.374 180.288 133.178 175.896C133.178 175.896 116.87 168.862 104.558 166.046C92.2464 163.231 89.82 166.046 89.82 166.046L109.296 193.342L129.514 184.738Z" opacity=".3"/><path fill="#F7C8E0" d="M130.622 185.486C130.622 185.486 129.708 184.86 128.167 183.83C120.895 178.985 99.6696 165.11 94.3272 164.959C86.94 164.75 86.9328 171.115 86.94 176.047C86.94 179.539 89.82 209.887 89.82 209.887"/><path fill="#263238" d="M207.994 196.978C207.958 196.912 207.932 196.842 207.914 196.769C207.857 196.61 207.785 196.402 207.698 196.142L206.892 193.73C206.172 191.642 205.128 188.626 203.681 184.954C202.021 180.644 200.098 176.441 197.921 172.368C196.651 169.961 195.159 167.679 193.464 165.55C192.583 164.423 191.56 163.416 190.418 162.554C189.303 161.614 187.873 161.128 186.415 161.194C184.96 161.377 183.561 161.868 182.311 162.634C181.067 163.348 179.882 164.162 178.769 165.067C176.668 166.799 174.686 168.671 172.836 170.669C169.697 174.057 166.732 177.601 163.951 181.289C161.554 184.428 159.71 187.049 158.443 188.842L157.003 190.93L156.629 191.47C156.588 191.535 156.54 191.596 156.485 191.65L156.593 191.448L156.946 190.886C157.255 190.397 157.723 189.677 158.335 188.762C159.566 186.926 161.381 184.291 163.75 181.13C166.51 177.411 169.463 173.84 172.598 170.431C174.45 168.414 176.439 166.527 178.553 164.786C179.684 163.863 180.888 163.032 182.153 162.302C183.456 161.527 184.909 161.036 186.415 160.862C187.191 160.788 187.973 160.899 188.698 161.186C189.396 161.473 190.057 161.845 190.663 162.295C191.828 163.179 192.876 164.207 193.781 165.355C195.481 167.509 196.978 169.815 198.252 172.246C200.42 176.34 202.324 180.567 203.954 184.903C205.394 188.59 206.381 191.621 207.05 193.73C207.389 194.782 207.634 195.602 207.77 196.164C207.842 196.423 207.9 196.639 207.95 196.798C207.971 196.856 207.986 196.916 207.994 196.978Z"/><path fill="#263238" d="M220.694 147.017L220.874 147.146L221.378 147.557L223.294 149.155L230.292 155.095L230.76 155.491L230.17 155.326C220.757 152.672 211.033 151.284 201.254 151.2C190.194 151.087 179.175 152.568 168.538 155.599H168.494H168.451L162.907 152.352L161.467 151.474L161.1 151.243C161.056 151.219 161.015 151.19 160.978 151.157L161.114 151.214L161.503 151.423L162.994 152.244L168.588 155.405H168.494C173.079 154.048 177.748 152.99 182.47 152.237C185.263 151.776 188.23 151.438 191.419 151.164C194.609 150.89 197.899 150.782 201.276 150.847C206.666 150.9 212.044 151.35 217.368 152.194C221.722 152.887 226.028 153.849 230.263 155.074L230.141 155.304L223.2 149.27L221.328 147.614L220.853 147.175C220.793 147.13 220.74 147.076 220.694 147.017Z"/><g opacity=".2"><path fill="#fff" d="M180.108 241.639C179.942 242.669 178.884 243.439 177.379 243.958C175.564 244.523 173.672 244.802 171.77 244.786C169.868 244.835 167.969 244.593 166.14 244.066C164.628 243.583 163.555 242.834 163.368 241.812C163.181 240.79 163.951 239.695 165.456 238.81C167.385 237.82 169.518 237.292 171.686 237.269C173.854 237.245 175.998 237.726 177.948 238.673C179.474 239.537 180.274 240.624 180.108 241.639Z"/></g><path fill="#263238" d="M132.948 245.354C132.874 245.322 132.803 245.281 132.739 245.232L132.163 244.843L131.22 244.21C130.838 243.979 130.385 243.742 129.874 243.454C126.968 241.927 123.841 240.865 120.607 240.307C118.375 239.928 116.117 239.716 113.854 239.674C111.253 239.658 108.655 239.848 106.085 240.242C100.178 241.113 94.5445 243.305 89.604 246.658C88.3362 247.556 87.1333 248.542 86.004 249.61C84.9022 250.651 83.8816 251.775 82.9512 252.972C81.1917 255.236 79.7749 257.747 78.7464 260.424C77.1029 265.017 76.7836 269.979 77.8248 274.745C78.2533 276.561 78.8886 278.322 79.7184 279.994C80.3727 281.243 81.1416 282.429 82.0152 283.536L83.016 284.717L83.8224 285.509L84.312 285.998C84.42 286.114 84.4776 286.171 84.4704 286.178C84.4044 286.136 84.344 286.085 84.2904 286.027L83.7648 285.559L82.9296 284.789L81.9072 283.63C81.0052 282.529 80.2096 281.345 79.5312 280.094C78.6757 278.415 78.0185 276.641 77.5728 274.81C76.4756 269.991 76.7702 264.959 78.4224 260.302C78.9244 258.974 79.5261 257.686 80.2224 256.45C80.9388 255.155 81.7549 253.917 82.6632 252.749C83.6048 251.537 84.6348 250.396 85.7448 249.336C86.8976 248.256 88.1246 247.257 89.4168 246.348C94.4029 242.961 100.096 240.757 106.063 239.904C108.651 239.512 111.266 239.331 113.882 239.364C116.162 239.419 118.434 239.646 120.679 240.041C123.926 240.643 127.055 241.764 129.946 243.36C130.45 243.662 130.903 243.914 131.285 244.152L132.206 244.822L132.768 245.239C132.89 245.297 132.955 245.347 132.948 245.354Z"/><path fill="#263238" d="M102.067 257.458C102.132 257.836 102.161 258.219 102.154 258.602C102.154 259.409 102.233 260.46 102.283 261.734C102.398 264.37 102.614 268.02 102.708 272.052C102.708 273.067 102.708 274.054 102.708 275.004C102.726 275.93 102.658 276.855 102.506 277.769C102.404 278.562 102.121 279.321 101.679 279.988C101.237 280.654 100.648 281.21 99.9576 281.614C99.4725 281.86 98.9316 281.974 98.3885 281.946C97.8454 281.919 97.319 281.749 96.8616 281.455C96.6184 281.295 96.4102 281.086 96.2496 280.843C96.1884 280.763 96.1421 280.673 96.1128 280.577C96.3476 280.87 96.627 281.126 96.9408 281.333C97.3786 281.581 97.8714 281.715 98.3744 281.724C98.8774 281.733 99.3746 281.616 99.8208 281.383C100.46 280.983 101.002 280.445 101.405 279.809C101.809 279.172 102.065 278.453 102.154 277.704C102.29 276.811 102.347 275.907 102.326 275.004C102.326 274.054 102.326 273.067 102.29 272.066C102.197 268.034 102.017 264.384 101.974 261.742C101.974 260.417 101.974 259.344 101.974 258.602C101.978 258.219 102.009 257.837 102.067 257.458Z"/><path fill="#263238" d="M121.975 257.458C122.03 257.837 122.056 258.219 122.054 258.602C122.054 259.409 122.134 260.46 122.184 261.734C122.299 264.37 122.515 268.02 122.616 272.052C122.616 273.067 122.616 274.054 122.616 275.004C122.628 275.93 122.558 276.855 122.407 277.769C122.306 278.562 122.023 279.322 121.581 279.988C121.139 280.655 120.55 281.211 119.858 281.614C119.373 281.859 118.832 281.973 118.289 281.945C117.746 281.918 117.22 281.749 116.762 281.455C116.522 281.292 116.314 281.084 116.15 280.843C116.042 280.678 116.006 280.577 116.021 280.577C116.252 280.871 116.529 281.127 116.842 281.333C117.279 281.581 117.772 281.715 118.275 281.724C118.778 281.733 119.275 281.616 119.722 281.383C120.361 280.983 120.902 280.445 121.306 279.809C121.71 279.172 121.966 278.453 122.054 277.704C122.193 276.811 122.253 275.908 122.234 275.004C122.234 274.054 122.234 273.067 122.198 272.066C122.098 268.034 121.925 264.384 121.882 261.742C121.882 260.417 121.882 259.344 121.882 258.602C121.876 258.219 121.908 257.835 121.975 257.458Z"/><path fill="#263238" d="M146.693 274.658C146.653 274.828 146.6 274.994 146.534 275.155C146.412 275.472 146.275 275.954 146.002 276.538C145.289 278.22 144.409 279.827 143.374 281.333C141.84 283.57 140.05 285.619 138.038 287.438C136.848 288.51 135.592 289.508 134.28 290.426C132.862 291.397 131.381 292.27 129.845 293.04C126.88 294.558 123.735 295.695 120.485 296.424C117.832 296.986 115.126 297.259 112.414 297.238C110.11 297.238 108.245 297.094 106.963 297.007L105.48 296.885C105.308 296.882 105.136 296.86 104.969 296.82C105.141 296.803 105.315 296.803 105.487 296.82L106.97 296.863C108.252 296.914 110.117 297 112.414 296.978C115.104 296.966 117.785 296.669 120.413 296.093C123.619 295.351 126.721 294.216 129.65 292.716C131.173 291.955 132.643 291.091 134.05 290.131C135.349 289.223 136.597 288.242 137.786 287.194C139.79 285.4 141.585 283.386 143.136 281.189C144.187 279.704 145.103 278.128 145.872 276.48C146.16 275.911 146.318 275.436 146.47 275.126C146.525 274.962 146.6 274.805 146.693 274.658Z"/><path fill="#fff" d="M101.635 256.658C101.488 256.406 101.322 256.165 101.138 255.938C100.876 255.651 100.558 255.421 100.205 255.26C99.8506 255.099 99.4678 255.011 99.0792 255.002C98.5058 254.998 97.9382 255.117 97.4152 255.352C96.8921 255.587 96.4257 255.932 96.048 256.363C95.594 256.865 95.2767 257.475 95.1264 258.134C94.9652 258.855 94.8926 259.592 94.9104 260.33C94.9104 263.426 94.9464 266.242 94.9104 268.25C94.9104 269.201 94.9104 270.007 94.9104 270.655C94.9201 270.949 94.9008 271.243 94.8528 271.534C94.7881 271.245 94.759 270.95 94.7664 270.655C94.7664 270.007 94.716 269.215 94.68 268.25C94.6296 266.22 94.572 263.412 94.5504 260.33C94.5321 259.561 94.6095 258.792 94.7808 258.041C94.9579 257.328 95.3092 256.67 95.8032 256.126C96.2194 255.665 96.732 255.303 97.3046 255.064C97.8771 254.825 98.4954 254.715 99.1152 254.743C99.5325 254.764 99.9406 254.873 100.313 255.063C100.685 255.253 101.013 255.519 101.275 255.845C101.411 256.021 101.523 256.215 101.606 256.421C101.628 256.572 101.65 256.651 101.635 256.658Z"/><path fill="#fff" d="M114.826 258.314C114.926 258.314 115.013 262.109 115.013 266.789C115.013 271.469 114.926 275.27 114.826 275.27C114.725 275.27 114.638 271.476 114.638 266.789C114.638 262.102 114.725 258.314 114.826 258.314Z"/><path fill="#fff" d="M108.785 241.97C108.641 242.002 108.493 242.014 108.346 242.006C108.05 242.006 107.626 242.006 107.078 242.006C105.528 242.064 103.983 242.232 102.456 242.51C96.6453 243.592 91.2721 246.333 86.9855 250.403C82.6989 254.472 79.6823 259.696 78.3 265.442C78.156 265.968 78.0912 266.393 78.0192 266.674C77.994 266.819 77.953 266.962 77.8968 267.098C77.8919 266.951 77.9064 266.803 77.94 266.659C77.9904 266.371 78.0336 265.939 78.156 265.406C78.4705 263.877 78.9137 262.376 79.4808 260.921C81.3314 256.072 84.4242 251.795 88.449 248.518C92.4739 245.241 97.2894 243.08 102.413 242.251C103.952 241.99 105.51 241.86 107.071 241.862C107.626 241.862 108.058 241.898 108.346 241.906C108.494 241.913 108.641 241.935 108.785 241.97Z"/><path fill="#fff" d="M89.9568 205.294C89.9338 205.436 89.8901 205.574 89.8272 205.704L89.3808 206.842C89.1792 207.331 88.9416 207.936 88.6608 208.649C88.38 209.362 88.092 210.161 87.8184 211.068C87.5448 211.975 87.1992 212.954 86.9112 214.034C86.6232 215.114 86.328 216.266 86.0328 217.483C84.8297 222.79 84.2641 228.221 84.348 233.662C84.3912 234.914 84.4056 236.11 84.4992 237.218C84.5928 238.327 84.6648 239.378 84.7728 240.307C84.8808 241.236 84.996 242.1 85.0968 242.849C85.1976 243.598 85.3056 244.238 85.3992 244.757C85.4928 245.275 85.5504 245.65 85.6008 245.966C85.6345 246.105 85.649 246.248 85.644 246.391C85.5897 246.259 85.551 246.122 85.5288 245.981L85.2552 244.786C85.14 244.267 85.0032 243.626 84.888 242.885C84.7728 242.143 84.6072 241.286 84.5064 240.343C84.4056 239.4 84.2616 238.363 84.1896 237.24C84.1176 236.117 84.0528 234.929 84.0024 233.64C83.8946 228.189 84.4752 222.746 85.7304 217.44C86.04 216.216 86.3136 215.057 86.652 213.984C86.9904 212.911 87.2856 211.918 87.6024 211.018C87.9192 210.118 88.2288 209.318 88.4952 208.613C88.7616 207.907 89.028 207.302 89.2152 206.82C89.4024 206.338 89.5896 205.999 89.7264 205.711C89.7849 205.563 89.8624 205.422 89.9568 205.294Z"/><path fill="#fff" d="M91.0368 167.854C91.0368 167.854 90.7416 168.242 90.3168 168.998C89.7258 170.075 89.3193 171.243 89.1144 172.454C88.818 174.256 88.6687 176.079 88.668 177.905C88.6104 179.971 88.6032 182.225 88.668 184.63C88.7832 189.403 89.1648 193.716 89.5248 196.819C89.7192 198.331 89.8704 199.57 89.9856 200.498L90.1152 201.499C90.1248 201.617 90.1248 201.735 90.1152 201.852C90.0644 201.746 90.0328 201.631 90.0216 201.514C89.964 201.24 89.8992 200.916 89.82 200.52C89.6616 199.663 89.46 198.41 89.244 196.855C88.6928 192.796 88.3683 188.71 88.272 184.615C88.2144 182.225 88.272 179.942 88.272 177.869C88.2845 176.025 88.4628 174.187 88.8048 172.375C89.0374 171.146 89.4885 169.968 90.1368 168.898C90.3166 168.611 90.5188 168.339 90.7416 168.084C90.936 167.933 91.0224 167.846 91.0368 167.854Z"/><path fill="#fff" d="M161.122 145.296C160.971 145.367 160.818 145.429 160.661 145.483L159.322 145.958L154.39 147.65C148.95 149.466 143.61 151.567 138.391 153.943C133.177 156.33 128.255 159.312 123.725 162.828C122.004 164.196 120.679 165.384 119.786 166.234C119.333 166.644 119.002 166.99 118.764 167.213C118.652 167.335 118.526 167.443 118.39 167.537C118.484 167.403 118.59 167.278 118.706 167.162C118.93 166.925 119.246 166.558 119.686 166.126C120.916 164.891 122.209 163.721 123.559 162.619C128.065 159.024 132.996 155.997 138.24 153.605C143.469 151.219 148.835 149.146 154.31 147.398C156.406 146.714 158.105 146.174 159.286 145.814L160.646 145.411C160.8 145.356 160.96 145.317 161.122 145.296Z"/><path fill="#fff" d="M186.178 163.145C186.178 163.145 186.077 163.246 185.854 163.404L184.896 164.081C184.061 164.657 182.866 165.521 181.411 166.615C179.957 167.71 178.272 169.07 176.458 170.64C174.643 172.21 172.721 174.038 170.791 176.026C168.862 178.013 167.134 180.029 165.614 181.894C164.095 183.758 162.814 185.494 161.777 186.998C160.74 188.503 159.919 189.713 159.379 190.598L158.738 191.578C158.668 191.696 158.586 191.807 158.494 191.909C158.535 191.778 158.596 191.654 158.674 191.542C158.825 191.268 159.019 190.93 159.257 190.519C159.761 189.634 160.546 188.359 161.561 186.869C162.576 185.378 163.85 183.593 165.348 181.699C166.846 179.806 168.595 177.804 170.518 175.788C172.44 173.772 174.406 171.979 176.227 170.402C178.049 168.826 179.777 167.522 181.267 166.421C182.758 165.319 183.967 164.52 184.831 163.98L185.832 163.361C185.94 163.278 186.056 163.205 186.178 163.145Z"/><path fill="#fff" d="M297.144 213.235C297.497 213.809 297.784 214.42 298.001 215.057C299.183 218.065 299.981 221.209 300.377 224.417C300.489 225.078 300.528 225.749 300.492 226.418C300.312 225.775 300.185 225.117 300.11 224.453C299.902 223.243 299.585 221.573 299.124 219.751C298.663 217.93 298.145 216.302 297.749 215.136C297.5 214.518 297.298 213.883 297.144 213.235Z"/><path fill="#263238" d="M279.922 295.769C279.922 295.769 279.799 295.87 279.562 296.042L278.503 296.762L276.775 297.979L275.674 298.8L274.385 299.635C269.264 303.011 263.932 306.056 258.422 308.75C256.68 309.6 254.822 310.45 252.9 311.328L249.912 312.595L248.4 313.2L246.816 313.805L243.562 315.05L240.163 316.224C239.018 316.642 237.838 316.994 236.635 317.362C235.433 317.729 234.238 318.132 232.992 318.449C227.823 319.91 222.578 321.09 217.282 321.984C211.597 322.975 205.853 323.593 200.088 323.834C194.323 324.084 188.547 323.904 182.808 323.294L180.727 323.093C180.043 323.021 179.359 322.906 178.682 322.812L174.643 322.243L170.719 321.523L168.797 321.156L166.903 320.724C158.007 318.775 149.325 315.953 140.983 312.3C135.355 309.875 129.939 306.985 124.79 303.66C122.933 302.522 121.615 301.5 120.672 300.823L119.628 300.053C119.39 299.88 119.275 299.779 119.275 299.779L119.65 300.024L120.722 300.744C121.673 301.378 123.005 302.407 124.87 303.523C130.038 306.806 135.463 309.666 141.091 312.077C149.421 315.679 158.08 318.467 166.946 320.4L168.833 320.825L170.755 321.185L174.672 321.905L178.697 322.466C179.374 322.56 180.058 322.675 180.742 322.74L182.815 322.942C188.539 323.549 194.301 323.727 200.052 323.474C205.8 323.237 211.527 322.624 217.195 321.638C222.481 320.747 227.715 319.577 232.877 318.132C234.122 317.815 235.318 317.412 236.52 317.052C237.722 316.692 238.889 316.332 240.034 315.929L243.432 314.762L246.679 313.531L248.263 312.926L249.797 312.286L252.785 311.033C254.707 310.162 256.565 309.326 258.307 308.484C263.822 305.824 269.169 302.83 274.32 299.52C274.771 299.222 275.203 298.949 275.616 298.699L276.732 297.936L278.474 296.755L279.554 296.035L279.922 295.769Z"/><path fill="#F7C8E0" d="M248.904 303.48L263.376 340.481H273.269L275.422 337.262L277.963 340.481H281.455L282.758 281.837L248.904 303.48Z"/><path fill="#F7C8E0" d="M158.004 308.686L170.244 340.481H181.49L183.787 336.802L186.005 340.481H188.791C188.791 340.481 190.015 304.61 188.791 303.595C187.567 302.58 158.004 308.686 158.004 308.686Z"/><path fill="#fff" d="M300.881 237.6C300.89 237.672 300.89 237.744 300.881 237.816C300.881 237.974 300.881 238.176 300.83 238.435C300.773 239.004 300.701 239.796 300.607 240.804C300.557 241.322 300.499 241.898 300.434 242.518C300.37 243.137 300.226 243.821 300.11 244.548C299.851 245.988 299.642 247.658 299.174 249.451C298.966 250.358 298.742 251.302 298.512 252.288C298.282 253.274 297.936 254.268 297.634 255.312C297.058 257.414 296.194 259.589 295.358 261.886C291.447 271.804 285.719 280.905 278.467 288.72C276.754 290.477 275.17 292.183 273.514 293.609C272.707 294.329 271.951 295.049 271.166 295.711L268.906 297.54C267.466 298.735 266.076 299.642 264.881 300.499C264.276 300.924 263.722 301.327 263.196 301.673L261.72 302.566L259.682 303.79L259.142 304.099L258.955 304.2C258.955 304.2 259.006 304.15 259.121 304.07L259.639 303.725L261.648 302.443L263.088 301.522C263.614 301.169 264.154 300.758 264.751 300.334C265.932 299.455 267.329 298.534 268.733 297.331L270.972 295.495C271.75 294.854 272.491 294.113 273.298 293.386C274.932 291.946 276.509 290.246 278.201 288.49C285.394 280.679 291.099 271.619 295.034 261.756C295.884 259.474 296.741 257.314 297.324 255.218C297.634 254.182 297.979 253.188 298.224 252.209C298.469 251.23 298.692 250.294 298.944 249.394C299.434 247.608 299.664 245.952 299.93 244.512C300.06 243.792 300.197 243.115 300.29 242.496C300.384 241.877 300.427 241.308 300.492 240.79C300.614 239.782 300.715 238.99 300.78 238.428C300.816 238.176 300.845 237.974 300.866 237.809C300.863 237.739 300.867 237.669 300.881 237.6Z"/><g opacity=".2"><path fill="#fff" d="M285.228 206.41C281.945 198.266 274.781 190.57 266.508 187.222C264.931 186.597 263.229 186.356 261.541 186.519C259.853 186.682 258.228 187.243 256.8 188.158C255.372 189.072 254.181 190.312 253.327 191.777C252.472 193.242 251.978 194.888 251.885 196.582C251.888 196.634 251.888 196.687 251.885 196.74C251.626 201.953 253.678 207.007 256.205 211.586C258.732 216.166 261.72 220.5 263.671 225.338C266.887 233.412 266.99 242.393 263.959 250.538C262.03 255.665 258.833 261.13 261.727 266.234C263.628 269.59 267.451 271.238 271.289 270.893C278.64 270.223 282.456 263.585 285.941 257.551C288.742 252.698 291.053 245.153 291.182 239.458C291.571 228.143 289.541 216.877 285.228 206.41Z"/></g><path fill="#263238" d="M173.794 229.406C173.527 229.478 173.074 228.406 172.397 226.85C172.008 225.986 171.48 225.19 170.834 224.496C170.142 223.718 169.173 223.243 168.134 223.171C167.075 223.185 166.055 223.572 165.254 224.266C164.554 224.869 163.977 225.603 163.555 226.426C162.835 227.916 162.511 229.018 162.23 228.967C161.95 228.917 161.798 227.786 162.324 225.929C162.654 224.808 163.261 223.788 164.088 222.962C164.624 222.426 165.26 222 165.96 221.709C166.661 221.419 167.412 221.27 168.17 221.27C168.986 221.294 169.783 221.522 170.489 221.933C171.109 222.294 171.66 222.762 172.116 223.315C172.839 224.213 173.357 225.257 173.635 226.375C174.082 228.24 174.024 229.342 173.794 229.406Z"/><path fill="#263238" d="M119.11 225.007C119.11 226.031 118.806 227.032 118.237 227.883C117.668 228.735 116.86 229.398 115.914 229.79C114.968 230.182 113.927 230.284 112.923 230.085C111.919 229.885 110.996 229.392 110.272 228.668C109.548 227.944 109.055 227.021 108.855 226.017C108.656 225.013 108.758 223.972 109.15 223.026C109.542 222.08 110.205 221.272 111.057 220.703C111.908 220.134 112.909 219.83 113.933 219.83C115.306 219.83 116.623 220.376 117.593 221.347C118.564 222.317 119.11 223.634 119.11 225.007Z"/><path fill="#fff" d="M283.529 181.706C283.397 181.59 283.279 181.46 283.176 181.318L282.24 180.158C281.822 179.647 281.318 179.028 280.699 178.337C280.08 177.646 279.41 176.818 278.604 175.968C277.798 175.118 276.948 174.154 275.976 173.182C275.004 172.21 273.953 171.173 272.844 170.1C270.576 167.99 268.006 165.78 265.183 163.57C262.361 161.359 259.538 159.473 256.925 157.81C255.6 157.003 254.354 156.218 253.152 155.556C251.95 154.894 250.826 154.26 249.79 153.72C248.753 153.18 247.802 152.712 246.967 152.28C246.132 151.848 245.412 151.524 244.807 151.258L243.439 150.617C243.274 150.55 243.117 150.466 242.971 150.365C243.141 150.412 243.307 150.472 243.468 150.545L244.865 151.121C245.47 151.373 246.211 151.69 247.025 152.093C247.838 152.496 248.839 152.921 249.905 153.468C250.97 154.015 252.065 154.584 253.296 155.275C254.527 155.966 255.766 156.715 257.098 157.5C259.733 159.149 262.562 161.064 265.406 163.26C268.25 165.456 270.814 167.702 273.074 169.834C274.183 170.921 275.234 171.943 276.192 172.951C277.15 173.959 278.021 174.895 278.798 175.774C279.576 176.652 280.238 177.473 280.85 178.186C281.462 178.898 281.952 179.532 282.341 180.058L283.255 181.26C283.363 181.398 283.455 181.548 283.529 181.706Z"/><path fill="#fff" d="M229.097 158.443C228.905 158.407 228.716 158.351 228.535 158.278L226.958 157.738C226.238 157.486 225.439 157.198 224.446 156.91C223.452 156.622 222.35 156.233 221.09 155.923L219.125 155.405C218.441 155.225 217.685 155.088 216.965 154.915C215.482 154.562 213.876 154.303 212.191 154.001C208.519 153.434 204.817 153.085 201.103 152.957C197.388 152.867 193.671 153.004 189.972 153.367C188.273 153.569 186.646 153.734 185.148 154.001C184.428 154.13 183.665 154.224 182.988 154.368L180.994 154.771C179.719 155.009 178.589 155.318 177.588 155.563C176.587 155.808 175.73 156.031 175.032 156.24L173.426 156.694C173.24 156.751 173.05 156.797 172.858 156.83C173.032 156.741 173.215 156.671 173.405 156.622L174.989 156.103C175.709 155.873 176.53 155.606 177.53 155.383C178.531 155.16 179.69 154.793 180.936 154.541L182.93 154.109C183.65 153.965 184.37 153.857 185.09 153.727C186.595 153.439 188.222 153.259 189.929 153.05C197.363 152.249 204.872 152.464 212.249 153.691C213.941 154.001 215.554 154.274 217.044 154.642C217.764 154.822 218.484 154.966 219.204 155.153L221.17 155.7C222.43 156.024 223.538 156.42 224.518 156.737C225.497 157.054 226.339 157.356 227.016 157.63L228.571 158.242C228.751 158.295 228.927 158.362 229.097 158.443Z"/></svg>