<svg xmlns="http://www.w3.org/2000/svg" width="519" height="141" fill="none" viewBox="0 0 519 141"><path fill="#717775" d="M54.912 61.656C54.912 58.4987 54.6133 56.024 54.016 54.232C53.4187 52.3547 52.352 50.9467 50.816 50.008C49.3653 49.0693 47.744 48.472 45.952 48.216C44.2453 47.8747 41.856 47.704 38.784 47.704V75.864C41.1733 75.864 43.264 75.6507 45.056 75.224C46.9333 74.7973 48.64 74.072 50.176 73.048C51.712 72.024 52.864 70.5733 53.632 68.696C54.4853 66.7333 54.912 64.3867 54.912 61.656ZM38.784 99.8C38.784 106.712 37.504 111.661 34.944 114.648C32.384 117.549 28.4587 119 23.168 119C17.8773 119 13.9947 117.677 11.52 115.032C9.04533 112.301 7.808 107.523 7.808 100.696V46.68C7.808 41.4747 9.216 37.6347 12.032 35.16C14.848 32.6 18.56 31.32 23.168 31.32H45.952C51.4987 31.32 56.6187 32.088 61.312 33.624C66.0053 35.0747 70.0587 37.1653 73.472 39.896C76.9707 42.5413 79.6587 45.912 81.536 50.008C83.4987 54.0187 84.48 58.4987 84.48 63.448C84.48 69.5067 82.7307 74.7973 79.232 79.32C75.7333 83.7573 71.1253 87.0853 65.408 89.304C59.6907 91.5227 53.248 92.632 46.08 92.632H38.784V99.8ZM139.206 101.08C142.107 101.08 144.582 99.8 146.63 97.24C148.763 94.68 150.257 91.5227 151.11 87.768C152.049 84.0133 152.518 80.0027 152.518 75.736C152.518 71.384 152.049 67.288 151.11 63.448C150.171 59.5227 148.635 56.1947 146.502 53.464C144.454 50.7333 142.022 49.368 139.206 49.368C136.475 49.368 134.086 50.7333 132.038 53.464C129.99 56.1947 128.454 59.5227 127.43 63.448C126.406 67.3733 125.894 71.4693 125.894 75.736C125.894 80.0027 126.363 84.0133 127.302 87.768C128.326 91.5227 129.862 94.68 131.91 97.24C134.043 99.8 136.475 101.08 139.206 101.08ZM161.862 114.776C155.121 118.104 147.526 119.768 139.078 119.768C130.715 119.768 123.163 118.104 116.422 114.776C109.766 111.363 104.433 106.285 100.422 99.544C96.4113 92.8027 94.406 84.8667 94.406 75.736C94.406 61.912 98.5447 50.9467 106.822 42.84C115.185 34.648 125.979 30.552 139.206 30.552C152.433 30.552 163.227 34.648 171.59 42.84C179.953 50.9467 184.134 61.912 184.134 75.736C184.134 84.8667 182.086 92.8027 177.99 99.544C173.979 106.285 168.603 111.363 161.862 114.776ZM277.022 46.68V84.824C277.022 97.2827 273.993 106.243 267.934 111.704C261.961 117.08 251.849 119.768 237.598 119.768C224.03 119.768 214.046 116.867 207.646 111.064C201.331 105.261 198.174 96.5147 198.174 84.824V46.68C198.174 42.1573 199.497 38.488 202.142 35.672C204.873 32.7707 208.286 31.32 212.382 31.32C217.417 31.32 221.214 32.2587 223.774 34.136C226.419 36.0133 227.742 39.8107 227.742 45.528V87.256C227.827 89.9867 228.254 92.1627 229.022 93.784C229.875 95.4053 230.985 96.5573 232.35 97.24C233.715 97.8373 235.465 98.136 237.598 98.136C239.731 98.136 241.481 97.88 242.846 97.368C244.211 96.856 245.193 96.0453 245.79 94.936C246.473 93.8267 246.899 92.7173 247.07 91.608C247.326 90.4987 247.454 89.048 247.454 87.256V45.4C247.454 42.4987 247.795 40.0667 248.478 38.104C249.246 36.1413 250.355 34.6907 251.806 33.752C253.342 32.8133 254.878 32.1733 256.414 31.832C258.035 31.4907 259.955 31.32 262.174 31.32C267.123 31.32 270.835 32.5147 273.31 34.904C275.785 37.2933 277.022 41.2187 277.022 46.68Z"/><path fill="#fcaed5" d="M340.037 61.656C340.037 58.4987 339.738 56.024 339.141 54.232C338.544 52.3547 337.477 50.9467 335.941 50.008C334.49 49.0693 332.869 48.472 331.077 48.216C329.37 47.8747 326.981 47.704 323.909 47.704V75.864C326.298 75.864 328.389 75.6507 330.181 75.224C332.058 74.7973 333.765 74.072 335.301 73.048C336.837 72.024 337.989 70.5733 338.757 68.696C339.61 66.7333 340.037 64.3867 340.037 61.656ZM323.909 99.8C323.909 106.712 322.629 111.661 320.069 114.648C317.509 117.549 313.584 119 308.293 119C303.002 119 299.12 117.677 296.645 115.032C294.17 112.301 292.933 107.523 292.933 100.696V46.68C292.933 41.4747 294.341 37.6347 297.157 35.16C299.973 32.6 303.685 31.32 308.293 31.32H331.077C336.624 31.32 341.744 32.088 346.437 33.624C351.13 35.0747 355.184 37.1653 358.597 39.896C362.096 42.5413 364.784 45.912 366.661 50.008C368.624 54.0187 369.605 58.4987 369.605 63.448C369.605 69.5067 367.856 74.7973 364.357 79.32C360.858 83.7573 356.25 87.0853 350.533 89.304C344.816 91.5227 338.373 92.632 331.205 92.632H323.909V99.8ZM413.15 99.8C413.15 106.456 411.913 111.32 409.438 114.392C406.963 117.464 403.209 119 398.174 119C393.225 119 389.555 117.677 387.166 115.032C384.862 112.387 383.71 107.651 383.71 100.824V46.68C383.71 36.44 388.531 31.32 398.174 31.32C403.123 31.32 406.835 32.2587 409.31 34.136C411.87 36.0133 413.15 39.8107 413.15 45.528V99.8ZM476.731 52.824C476.731 50.1787 474.982 48.856 471.483 48.856C467.899 48.856 464.827 50.8613 462.267 54.872C459.707 58.8827 458.427 65.5813 458.427 74.968C458.427 83.672 459.878 90.0293 462.779 94.04C465.766 97.9653 469.264 99.928 473.275 99.928C474.555 99.928 475.707 99.672 476.731 99.16C477.84 98.648 478.736 97.88 479.419 96.856C480.102 95.832 480.443 94.5947 480.443 93.144C478.395 93.144 476.603 92.76 475.067 91.992C473.616 91.224 472.55 90.2853 471.867 89.176C471.184 87.9813 470.843 86.7013 470.843 85.336C470.843 82.264 471.654 79.96 473.275 78.424C474.896 76.888 477.67 76.12 481.595 76.12H497.083C502.032 76.12 505.872 77.1867 508.603 79.32C511.334 81.4533 512.699 85.208 512.699 90.584C512.699 98.4347 508.944 105.304 501.435 111.192C493.926 116.995 485.008 119.896 474.683 119.896C465.211 119.896 456.763 118.189 449.339 114.776C442 111.363 436.155 106.285 431.803 99.544C427.536 92.7173 425.403 84.6533 425.403 75.352C425.403 61.528 429.584 50.6053 437.947 42.584C446.31 34.5627 457.403 30.552 471.227 30.552C476.688 30.552 481.595 30.9787 485.947 31.832C490.299 32.6 493.883 33.6667 496.699 35.032C499.6 36.3973 501.99 38.0613 503.867 40.024C505.83 41.9013 507.195 43.9067 507.963 46.04C508.816 48.1733 509.243 50.392 509.243 52.696C509.243 54.3173 508.987 55.896 508.475 57.432C507.963 58.8827 507.024 60.376 505.659 61.912C504.379 63.3627 502.374 64.5573 499.643 65.496C496.912 66.4347 493.627 66.904 489.787 66.904C484.155 66.904 480.571 66.0933 479.035 64.472C477.499 62.7653 476.731 58.8827 476.731 52.824Z"/><circle cx="139.5" cy="74.079" r="47.5" fill="#717775"/><rect width="15" height="46" x="150" y="49.579" fill="#fff" rx="7.5"/><rect width="15" height="46" x="114" y="51.579" fill="#fff" rx="7.5"/><path fill="#717775" stroke="#717775" stroke-linecap="round" stroke-width="6" d="M159.192 29.196C158.526 30.3689 156.919 31.6333 156.599 32.9163L166.542 41.0335C167.285 39.9187 167.647 38.8068 168.763 37.8768C170.888 36.1058 172.979 35.0091 175.629 34.179C179.982 32.8154 184.484 32.2206 188.864 30.9885C195.831 29.0292 203.305 22.147 203.475 14.4949C203.501 13.3411 202.689 14.3065 202.01 14.54C199.661 15.3473 196.885 14.7267 194.524 14.3371C192.44 13.9932 190.785 13.2228 188.853 12.4092C187.44 11.8142 186.248 11 184.704 11C179.389 11 173.714 11.8719 169.293 15.0699C166.306 17.2304 164.168 20.5412 162.393 23.7169C161.361 25.5646 160.236 27.3561 159.192 29.196Z"/><path fill="#717775" stroke="#717775" stroke-linecap="round" stroke-width="6" d="M113.566 31.7548C114.191 32.9263 115.699 34.1893 116 35.471L106.667 43.5791C105.969 42.4655 105.63 41.3549 104.582 40.4259C102.587 38.6569 100.625 37.5614 98.1378 36.7323C94.0519 35.3702 89.8264 34.776 85.7147 33.5453C79.1759 31.5882 72.1602 24.7137 72.0006 17.0701C71.9765 15.9176 72.7388 16.882 73.3762 17.1151C75.5806 17.9215 78.1865 17.3017 80.4026 16.9124C82.3583 16.5689 83.9116 15.7994 85.7252 14.9868C87.0518 14.3924 88.1705 13.5791 89.6194 13.5791C94.6086 13.5791 99.9354 14.45 104.085 17.6444C106.888 19.8026 108.895 23.1096 110.561 26.2818C111.53 28.1275 112.586 29.917 113.566 31.7548Z"/></svg>